<?xml version="1.0" encoding="utf-8"?>
<!-- Generator: Adobe Illustrator 19.0.0, SVG Export Plug-In . SVG Version: 6.00 Build 0)  -->
<svg version="1.1" id="Layer_1" xmlns="http://www.w3.org/2000/svg" xmlns:xlink="http://www.w3.org/1999/xlink" x="0px" y="0px"
	 viewBox="294 -4 1200 800" style="enable-background:new 294 -4 1200 800;" xml:space="preserve">
<style type="text/css">
	.st0{fill:#5AE4A7;}
	.st1{opacity:0.7;fill:#FFFFFF;}
	.st2{fill:none;stroke:#1A2E35;stroke-linecap:round;stroke-linejoin:round;stroke-miterlimit:10;}
	.st3{fill:#5AE4A7;stroke:#1A2E35;stroke-linecap:round;stroke-linejoin:round;stroke-miterlimit:10;}
	.st4{fill:#FFFFFF;stroke:#1A2E35;stroke-linecap:round;stroke-linejoin:round;stroke-miterlimit:10;}
	.st5{fill:#1A2E35;stroke:#1A2E35;stroke-linecap:round;stroke-linejoin:round;stroke-miterlimit:10;}
	.st6{fill:#8C8C8C;stroke:#1A2E35;stroke-linecap:round;stroke-linejoin:round;stroke-miterlimit:10;}
	.st7{opacity:0.33;}
	.st8{fill:#FFFFFF;}
	.st9{opacity:0.45;}
	.st10{opacity:0.15;}
</style>
<g>
	<g>
		<path class="st0" d="M1340,589.4c0,0-239.2,164.5-418.4,151.2c-179.3-13.2-189.8-58.6-309.4-87c-119.5-28.4-243-90.7-213.8-268.4
			C427.6,207.6,737.3,18.5,940.5,18.5s446,232.5,459.2,351.6C1413,489.2,1375.9,555.4,1340,589.4z"/>
		<path class="st1" d="M1340,589.4c0,0-239.2,164.5-418.4,151.2c-179.3-13.2-189.8-58.6-309.4-87c-119.5-28.4-243-90.7-213.8-268.4
			C427.6,207.6,737.3,18.5,940.5,18.5s446,232.5,459.2,351.6C1413,489.2,1375.9,555.4,1340,589.4z"/>
	</g>
	<g>
		<g>
			<path class="st2" d="M1354,94.2l6.6,36.5c-0.3,7.1-2.3,14-5.8,20.1l-8.8,15.3c-9-3-18.8-4.9-29.1-5.5l10.2-17.8
				c3.5-6.1,5.5-13,5.8-20.1l-11.2-59.3"/>
			<line class="st2" x1="1348.1" y1="60.9" x2="1352.4" y2="85.1"/>
		</g>
		<path class="st2" d="M1244.2,180.8c16.6-12.6,39.7-20.5,65.2-20.5c2.6,0,5.1,0.1,7.7,0.2c10.3,0.6,20,2.5,29.1,5.5
			c32.3,10.6,54.9,34.9,54.9,63.1c0,1.1,0,2.3-0.1,3.4c-0.6-0.3-1.3-0.5-1.9-0.5c-0.8,0-1.6,0.2-2.3,0.7
			c-3.7-31.2-36.4-51.2-76.5-54.7c0,0,0,0,0,0c-21-7.8-43.4-5.9-60,7.1c-1.1,0.9-2.1,1.7-3.1,2.7c-19.3,9.2-32.3,24.3-34.8,43.9
			h-0.6c-0.7-2.6-1.8-5.7-3.5-8.3v0c1.4-12.4,7.1-23.9,16.1-33.6"/>
		<path class="st2" d="M1222.1,231.7c-0.1,0.5-0.1,1.1-0.2,1.6c-0.1-0.5-0.2-1-0.4-1.6H1222.1z"/>
		<path class="st2" d="M1214,264.2c-1.5,3-3.4,4.8-5.6,4.8c-1.7,0-3.2-1.1-4.5-3c-1.3-6.2-1.9-13.3-1.6-21.3
			c0.1-3.2,0.4-5.9,0.7-8.1v0c1.4-2.8,3.3-4.4,5.4-4.4c0.4,0,0.7,0,1.1,0.2c0.6,1.1,1.1,2.1,1.5,3.1c-3.9,3-6.4,7.7-6.6,12.9
			C1204.2,255.2,1208.2,261.3,1214,264.2z"/>
		<g>
			<path class="st2" d="M1231.1,266.1c-0.2,0-0.4,0-0.7,0c-0.2,0-0.3,0-0.5,0l-8.9-0.2c-2.5-0.1-4.8-0.7-7-1.7
				c-5.9-2.8-9.8-8.9-9.6-15.9c0.2-5.3,2.7-9.9,6.6-12.9c2.4,6.2,1.8,10.9,4,11.2c0.5,0.1,1,0.1,1.5,0.1c0.9,0,1.8,0,2.4,0h0
				c0.2,0.3,0.5,0.3,0.8-0.1c0.2-0.2,0.5-0.5,0.7-0.9c0.6-1,1-2.5,1.3-4c0.6-2.3,0.8-4.5,0.8-4.5s-0.1-1.6-0.6-3.8
				c0-0.5,0.1-1.1,0.2-1.6l6.2,0.2C1226.6,242.8,1227.5,254.5,1231.1,266.1z"/>
			<path class="st2" d="M1219.8,246.5c-0.3,0.3-0.6,0.3-0.8,0.1C1219.5,246.6,1219.8,246.5,1219.8,246.5z"/>
			<path class="st2" d="M1222.1,231.7c-0.1,0.5-0.1,1.1-0.2,1.6c-0.1-0.5-0.2-1-0.4-1.6H1222.1z"/>
		</g>
		<path class="st2" d="M1281.5,267.3c-11.5-14.7-13-33.6-4.8-46.1c-2.3,0.9-4.4,2.2-6.4,3.7c-14.1,11-14.7,33.7-1.4,50.8
			c13.3,17,35.5,21.9,49.6,10.9c1-0.8,1.9-1.6,2.7-2.5C1307.9,287,1292.1,280.8,1281.5,267.3z M1343.2,243c1.3,4.8,1.7,9.6,1.2,14.2
			c3.1-0.8,5.4-3.6,5.4-7C1349.9,246.4,1347,243.3,1343.2,243z M1364,256.8c1,12.8,4.7,22.6,8.5,29.9c2.9-6.5,4.6-13.5,5.2-20.9
			C1371.7,265.3,1366.6,261.8,1364,256.8z M1362.8,289.4c-1-1.9-1.8-4.2-2.7-6.8c-2.7,12.7-9.2,24.1-19.5,32.1
			c-1.4,1.1-2.8,2.1-4.2,3c7.1-1.9,13.7-5.1,19.7-9.7c4.3-3.3,7.9-7.2,11-11.6C1365.6,294.5,1364.2,292.2,1362.8,289.4z"/>
		<path class="st2" d="M1366.8,218.9c-1-0.2-2-0.2-3.1,0c-5.2,0.9-7.8,8.6-8.7,18.8c-3-6.9-6.9-13.7-11.8-20
			c-25-32-66.4-41.5-93.4-21.9c2.1-2.9,4.5-5.5,7.1-8c1-0.9,2.1-1.8,3.1-2.7c16.7-13,39-14.9,60-7.1c0,0,0,0,0,0
			c14.3,5.3,27.9,15.1,38.7,28.8C1361.8,210.7,1364.5,214.8,1366.8,218.9z"/>
		<path class="st2" d="M1371.3,233.6c-3.1,1.6-5.7,4.1-7.3,7.1c0.6-6.8,1.9-10.8,3.5-12.5c1.1,0.9,2.2,2.4,3.3,4.3
			C1371,232.8,1371.2,233.2,1371.3,233.6z"/>
		<path class="st2" d="M1380.4,247.1c-0.5,0.1-1.8,0.4-3.5,0c-0.1,0-0.3-0.1-0.4-0.1c-2.4-0.7-1.5-6.3-5.1-13.5
			c-0.2-0.4-0.4-0.7-0.6-1.1c-1.1-1.9-2.2-3.4-3.3-4.3c1-1.2,2.2-1.4,3.5-0.8c1.4,0.6,2.9,2.3,4.4,4.8c0.1,0.1,0.1,0.2,0.2,0.3
			C1379.1,238.9,1379.3,246,1380.4,247.1z"/>
		<path class="st2" d="M1384.9,299.7c0.3,2.1-2.3,4.1-6.2,2.6c-2.7-1.1-6-3.8-9.4-9.6c-0.6-1-1.2-2.2-1.8-3.4
			c-0.2-0.5-0.5-1-0.7-1.5c-2.4-5-4.1-10.2-5.4-15.6c-1.5-6.4-2.3-13.1-2.5-19.7c0-1.2-0.1-2.4-0.1-3.7c0-1.2,0-2.5,0.1-3.7
			c0.2-3.8,0.5-7,0.9-9.5c0.9-8.2,3.1-14.5,7-16.4c0.2-0.1,0.3-0.2,0.5-0.2c0.3-0.1,0.6-0.2,0.9-0.2c8.9-1.5,12.8,6.9,14.4,13
			c0.9,3.2,1.1,5.8,1.1,5.8s-0.9,7.5-2.8,9.4c-0.3,0.3-0.6,0.3-0.8,0.1c-1.1-1.1-1.3-8.2-4.9-14.7c-0.1-0.1-0.1-0.2-0.2-0.3
			c-1.4-2.5-2.9-4.2-4.4-4.8c-1.2-0.6-2.4-0.4-3.5,0.8c-1.6,1.8-2.9,5.8-3.5,12.5v0c-0.1,1.4-0.2,2.9-0.3,4.5
			c-0.2,4.1-0.1,8,0.2,11.7c1,12.8,4.7,22.6,8.5,29.9c0.2,0.4,0.5,0.8,0.7,1.2C1378.3,297.4,1384.4,295.9,1384.9,299.7z"/>
		<path class="st2" d="M1286.9,211.9c0.5,0.1,1.1,0.2,1.6,0.2c2.4,0,4.6-1.2,5.9-3C1291.8,209.6,1289.2,210.6,1286.9,211.9z
			 M1343.2,243c-0.2,0-0.4,0-0.6,0c-4,0-7.2,3.2-7.2,7.2c0,4,3.2,7.2,7.2,7.2c0.6,0,1.2-0.1,1.8-0.2c3.1-0.8,5.4-3.6,5.4-7
			C1349.9,246.4,1347,243.3,1343.2,243z M1286.9,211.9c0.5,0.1,1.1,0.2,1.6,0.2c2.4,0,4.6-1.2,5.9-3
			C1291.8,209.6,1289.2,210.6,1286.9,211.9z M1343.2,243c-0.2,0-0.4,0-0.6,0c-4,0-7.2,3.2-7.2,7.2c0,4,3.2,7.2,7.2,7.2
			c0.6,0,1.2-0.1,1.8-0.2c3.1-0.8,5.4-3.6,5.4-7C1349.9,246.4,1347,243.3,1343.2,243z"/>
		<g>
			<path class="st2" d="M1390.7,250.5c0,5.9,1.2,11.2,3.2,14.6c-1.8,0.7-3.8,1-5.9,1c-0.2,0-0.3,0-0.5,0l-8.9-0.2
				c-0.3,0-0.6,0-0.9,0c0,0,0,0,0,0c-6-0.5-11-4-13.7-9c-0.3-3.6-0.4-7.5-0.2-11.7c0.1-1.6,0.2-3.1,0.3-4.5v0c1.7-3,4.2-5.5,7.3-7.1
				c3.6,7.2,2.6,12.8,5.1,13.5c0.1,0,0.3,0.1,0.4,0.1c1.7,0.4,3,0.1,3.5,0c0.2,0.2,0.5,0.2,0.8-0.1c1.9-1.9,2.8-9.4,2.8-9.4
				s-0.2-2.6-1.1-5.8l5.6,0.2c2.5,0.1,4.9,0.7,7.1,1.8C1392.7,236.6,1390.7,243,1390.7,250.5z"/>
		</g>
		<path class="st2" d="M1217.3,301.8c-2.8,1.6-9.4,0.1-15.9-13c-8.9-17.9-12.7-68.2,0.9-70.5c1.4-0.2,2.7-0.1,3.8,0.2
			c-4.2,1.4-6.6,7.9-7.6,16.6c-0.5,2.5-0.8,5.7-0.9,9.5c-0.1,2.3-0.1,4.7,0,7.1c0,0.6,0,1.2,0.1,1.8c0.1,1.5,0.2,3,0.3,4.5
			c0.1,0.8,0.2,1.5,0.3,2.3c0.1,0.7,0.2,1.4,0.3,2.1c0,0,0,0.1,0,0.2c0.2,1.5,0.5,2.9,0.8,4.4c0,0,0,0.1,0,0.1
			c0.1,0.4,0.2,0.9,0.3,1.3c1.4,6.4,3,13,5.7,19c0.1,0.2,0.2,0.4,0.3,0.6c0.1,0.3,0.3,0.6,0.4,0.9
			C1210.2,296.9,1214.2,300.6,1217.3,301.8z"/>
		<path class="st2" d="M1205.4,287.4c-2.7-6-4.3-12.6-5.7-19c0.5,1.9,0.9,3.7,1.5,5.5c0,0,0,0,0,0
			C1202.4,279.1,1203.8,283.8,1205.4,287.4z"/>
		<path class="st2" d="M1219,246.6c-0.6,0-1.5,0.1-2.4,0c-0.5,0-1,0-1.5-0.1c-2.2-0.3-1.6-5-4-11.2c-0.4-1-0.9-2.1-1.5-3.1
			c0-0.1-0.1-0.2-0.1-0.2c-1.1-1.9-2.2-3.4-3.3-4.4c2.3-2.6,5.3-0.6,8,4.4c0.2,0.4,0.4,0.8,0.6,1.1
			C1217.7,239.1,1218,245.4,1219,246.6z"/>
		<path class="st2" d="M1223.5,299.2c0.2,2.1-2.3,4.1-6.2,2.6c-3.2-1.2-7.2-4.9-11.2-13c-0.2-0.3-0.3-0.6-0.4-0.9
			c-0.1-0.2-0.2-0.4-0.3-0.6c-1.6-3.6-3-8.3-4.2-13.5c0,0,0,0,0,0c-0.5-1.7-1-3.6-1.5-5.5c-0.1-0.4-0.2-0.9-0.3-1.3c0,0,0-0.1,0-0.1
			c-0.3-1.5-0.6-2.9-0.8-4.4c0,0,0-0.1,0-0.2c-0.1-0.7-0.2-1.4-0.3-2.1c-0.1-0.8-0.2-1.5-0.3-2.3c-0.2-1.5-0.3-3-0.3-4.5
			c0-0.6-0.1-1.2-0.1-1.8c-0.1-2.4,0-4.7,0-7.1c0.2-3.8,0.5-7,0.9-9.5c1-8.6,3.4-15.1,7.6-16.6c0.3-0.1,0.6-0.2,0.9-0.2
			c5.2-0.9,8.7,1.6,11,5v0c1.8,2.6,2.8,5.7,3.5,8.3c0.2,0.6,0.3,1.1,0.4,1.6c0.5,2.3,0.6,3.8,0.6,3.8s-0.3,2.2-0.8,4.5
			c-0.3,1.4-0.8,2.9-1.3,4c-0.2,0.4-0.4,0.7-0.7,0.9c0,0-0.3,0-0.8,0.1h0c-1-1.2-1.3-7.5-4.2-13.5c-0.2-0.4-0.4-0.8-0.6-1.1
			c-2.7-4.9-5.7-6.9-8-4.4c-1.3,1.4-2.3,4.3-3,8.9v0c-0.4,2.3-0.6,5-0.7,8.1c-0.3,8,0.3,15.1,1.6,21.3c1.8,8.9,4.8,16,7.8,21.5
			C1216.9,296.9,1223.1,295.5,1223.5,299.2z"/>
		<path class="st2" d="M1205.4,287.4c-2.7-6-4.3-12.6-5.7-19c0.5,1.9,0.9,3.7,1.5,5.5c0,0,0,0,0,0
			C1202.4,279.1,1203.8,283.8,1205.4,287.4z"/>
		<path class="st2" d="M1219.8,246.5c-0.3,0.3-0.6,0.3-0.8,0.1C1219.5,246.6,1219.8,246.5,1219.8,246.5z"/>
		<path class="st2" d="M1378.7,302.3c-2.2,1.3-6.7,0.6-11.7-6c-1.4-1.8-2.8-4.1-4.2-7c-1-1.9-1.8-4.2-2.7-6.8c-4-12.3-6.2-31-5-44.9
			c0.8-10.2,3.5-18,8.7-18.8c1.1-0.2,2.1-0.2,3.1,0c0.1,0.1,0.2,0.3,0.2,0.4c-3.9,1.8-6.1,8.1-7,16.4c-0.5,2.5-0.8,5.7-0.9,9.5
			c-0.1,1.3-0.1,2.5-0.1,3.7c0,1.3,0,2.5,0.1,3.7c0.2,6.6,1,13.3,2.5,19.7c1.2,5.4,3,10.6,5.4,15.6c0.2,0.5,0.5,1,0.7,1.5
			c0.6,1.2,1.2,2.4,1.8,3.4C1372.7,298.5,1376,301.3,1378.7,302.3z"/>
		<path class="st2" d="M1367.5,219.1c-0.2,0-0.4,0.1-0.5,0.2c-0.1-0.1-0.1-0.3-0.2-0.4C1367,218.9,1367.3,219,1367.5,219.1z"/>
		<path class="st2" d="M1294.4,209.1c-1.3,1.8-3.4,3-5.9,3c-0.6,0-1.1-0.1-1.6-0.2C1289.2,210.6,1291.8,209.6,1294.4,209.1z"/>
		<path class="st2" d="M1355.1,237.7c-3-6.9-6.9-13.7-11.8-20c-25-32-66.4-41.5-93.4-21.9c-0.5,0.3-0.9,0.7-1.4,1
			c-11.1,8.7-17.8,21.1-20.1,35c-1.8,10.9-0.9,22.7,2.7,34.2c3,9.6,7.9,19.1,14.7,27.7c24.2,30.9,63.6,40.9,90.6,23.8
			c1.4-0.9,2.8-1.9,4.2-3c10.3-8,16.8-19.4,19.5-32.1C1356.2,270.3,1353.9,251.6,1355.1,237.7z M1317.2,211.9
			c1.2-0.9,2.7-1.4,4.2-1.4c4,0,7.2,3.2,7.2,7.2c0,0.5-0.1,1.1-0.2,1.6c-0.7,3.2-3.6,5.7-7.1,5.7c-4,0-7.2-3.2-7.2-7.2
			C1314.2,215.3,1315.4,213.2,1317.2,211.9z M1288.5,197.6c4,0,7.2,3.2,7.2,7.2c0,1.6-0.5,3-1.4,4.2c-1.3,1.8-3.4,3-5.9,3
			c-0.6,0-1.1-0.1-1.6-0.2c-3.2-0.7-5.6-3.6-5.6-7C1281.3,200.9,1284.5,197.6,1288.5,197.6z M1256.3,209.3c4,0,7.2,3.2,7.2,7.2
			s-3.2,7.2-7.2,7.2s-7.2-3.2-7.2-7.2S1252.3,209.3,1256.3,209.3z M1241.4,255.3c-3.4-0.6-5.9-3.6-5.9-7.1c0-2.5,1.3-4.8,3.3-6
			c1.1-0.8,2.5-1.2,4-1.2c1.1,0,2.1,0.2,3.1,0.7c2.5,1.1,4.2,3.7,4.2,6.6c0,2.5-1.3,4.8-3.3,6c-1.1,0.7-2.5,1.2-4,1.2
			C1242.3,255.4,1241.9,255.3,1241.4,255.3z M1255.5,283.8c-1,0.6-2.3,0.9-3.6,0.9c-4,0-7.2-3.2-7.2-7.2c0-2.5,1.3-4.7,3.2-6
			c1.1-0.8,2.5-1.2,4.1-1.2c4,0,7.2,3.2,7.2,7.2C1259.2,280.2,1257.7,282.6,1255.5,283.8z M1281.3,307.8c-1.2,1-2.8,1.6-4.5,1.6
			c-4,0-7.2-3.2-7.2-7.2c0-0.9,0.2-1.8,0.5-2.6c1-2.7,3.7-4.6,6.7-4.6c4,0,7.2,3.2,7.2,7.2C1284,304.4,1283,306.5,1281.3,307.8z
			 M1311.7,317.3c-4,0-7.2-3.2-7.2-7.2c0-4,3.2-7.2,7.2-7.2c4,0,7.2,3.2,7.2,7.2C1318.9,314.1,1315.7,317.3,1311.7,317.3z
			 M1327,248.4c4.8,13.1,2.8,27-5.7,35.7c-0.8,0.9-1.8,1.7-2.7,2.5c-14.1,11-36.3,6.1-49.6-10.9c-13.3-17-12.7-39.8,1.4-50.8
			c2-1.6,4.1-2.8,6.4-3.7c13.8-5.7,31.8,0,43.3,14.6c1.3,1.7,2.5,3.4,3.6,5.2 M1339.7,297.3c-4,0-7.2-3.2-7.2-7.2s3.2-7.2,7.2-7.2
			c4,0,7.2,3.2,7.2,7.2S1343.6,297.3,1339.7,297.3z M1344.4,257.2c-0.6,0.2-1.2,0.2-1.8,0.2c-4,0-7.2-3.2-7.2-7.2
			c0-4,3.2-7.2,7.2-7.2c0.2,0,0.4,0,0.6,0c3.7,0.3,6.6,3.4,6.6,7.2C1349.9,253.6,1347.6,256.4,1344.4,257.2z"/>
		<path class="st2" d="M1263.5,216.5c0,4-3.2,7.2-7.2,7.2s-7.2-3.2-7.2-7.2s3.2-7.2,7.2-7.2S1263.5,212.5,1263.5,216.5z"/>
		<path class="st2" d="M1295.8,204.9c0,1.6-0.5,3-1.4,4.2c-2.6,0.6-5.1,1.5-7.5,2.8c-3.2-0.7-5.6-3.6-5.6-7c0-4,3.2-7.2,7.2-7.2
			S1295.8,200.9,1295.8,204.9z"/>
		<path class="st2" d="M1328.7,217.7c0,0.5-0.1,1.1-0.2,1.6c-0.7,3.2-3.6,5.7-7.1,5.7c-4,0-7.2-3.2-7.2-7.2c0-2.4,1.2-4.5,3-5.8
			c1.2-0.9,2.7-1.4,4.2-1.4C1325.4,210.5,1328.7,213.7,1328.7,217.7z"/>
		<path class="st2" d="M1250,248.2c0,2.5-1.3,4.8-3.3,6c-1.1,0.7-2.5,1.2-4,1.2c-0.5,0-0.9,0-1.3-0.1c-3.4-0.6-5.9-3.6-5.9-7.1
			c0-2.5,1.3-4.8,3.3-6c1.1-0.8,2.5-1.2,4-1.2c1.1,0,2.1,0.2,3.1,0.7C1248.3,242.8,1250,245.3,1250,248.2z"/>
		<path class="st2" d="M1259.2,277.5c0,2.7-1.5,5.1-3.7,6.3c-1,0.6-2.3,0.9-3.6,0.9c-4,0-7.2-3.2-7.2-7.2c0-2.5,1.3-4.7,3.2-6
			c1.1-0.8,2.5-1.2,4.1-1.2C1256,270.3,1259.2,273.5,1259.2,277.5z"/>
		<path class="st2" d="M1284,302.2c0,2.3-1,4.3-2.7,5.6c-1.2,1-2.8,1.6-4.5,1.6c-4,0-7.2-3.2-7.2-7.2c0-0.9,0.2-1.8,0.5-2.6
			c1-2.7,3.7-4.6,6.7-4.6C1280.8,295,1284,298.2,1284,302.2z"/>
		<path class="st2" d="M1318.9,310.1c0,4-3.2,7.2-7.2,7.2c-4,0-7.2-3.2-7.2-7.2c0-4,3.2-7.2,7.2-7.2
			C1315.7,302.9,1318.9,306.1,1318.9,310.1z"/>
		<path class="st2" d="M1346.9,290c0,4-3.2,7.2-7.2,7.2c-4,0-7.2-3.2-7.2-7.2s3.2-7.2,7.2-7.2C1343.6,282.8,1346.9,286.1,1346.9,290
			z"/>
		<path class="st2" d="M1349.9,250.2c0,3.4-2.3,6.2-5.4,7c-0.6,0.2-1.2,0.2-1.8,0.2c-4,0-7.2-3.2-7.2-7.2c0-4,3.2-7.2,7.2-7.2
			c0.2,0,0.4,0,0.6,0C1347,243.3,1349.9,246.4,1349.9,250.2z"/>
		<path class="st2" d="M1407.2,250.5c0,10.2-3.7,18.5-8.3,18.5c-1.9,0-3.7-1.5-5.1-3.9c-1.9-3.4-3.2-8.6-3.2-14.6
			c0-7.5,2-13.9,4.8-16.8c0.4-0.4,0.7-0.7,1.1-0.9c0.7-0.5,1.5-0.7,2.3-0.7c0.7,0,1.3,0.2,1.9,0.5
			C1404.5,234.5,1407.2,241.8,1407.2,250.5z"/>
	</g>
	<g>
		<path class="st2" d="M538.5,296.3c-14.4,11.4-32.7,18.2-52.5,18.2c-46.9,0-84.9-38-84.9-84.9c0-46.9,38-84.9,84.9-84.9
			c46.9,0,84.9,38,84.9,84.9c0,23.7-9.7,45.1-25.4,60.5"/>
		<path class="st2" d="M453.6,162.2c9.8-4.7,20.8-7.4,32.5-7.4c41.3,0,74.7,33.5,74.7,74.7s-33.5,74.7-74.7,74.7
			s-74.7-33.5-74.7-74.7c0-26.8,14.1-50.3,35.3-63.5"/>
		<polyline class="st2" points="445.7,240.7 486,229.6 484.7,293.6 		"/>
	</g>
	<g>
		<g>
			<polygon class="st3" points="801.6,621.1 738.6,449.2 614.3,621.1 			"/>
			<line class="st2" x1="739.8" y1="533.2" x2="779.9" y2="573.8"/>
			<line class="st2" x1="727.4" y1="520.5" x2="733.7" y2="526.9"/>
			<line class="st2" x1="730.4" y1="568.6" x2="787.4" y2="593.3"/>
		</g>
		<g>
			<polygon class="st3" points="1220.9,621.1 1080.8,428.9 1053.2,612.5 1067.9,621.1 			"/>
			<line class="st2" x1="1108.8" y1="477.6" x2="1080.1" y2="536.5"/>
			<line class="st2" x1="1077.6" y1="551.5" x2="1072.6" y2="556.1"/>
			<line class="st2" x1="1105.8" y1="525.6" x2="1085.7" y2="544.1"/>
		</g>
		<path class="st3" d="M1051.2,621.1c6.5-40.3,30.3-187.7,30.3-191.9c0-4.8-127.4-56.7-127.4-56.7l-104.8,16.9
			c0,0-108.9,52.1-110.7,59.9c-1.5,6.7,48.9,135,63.4,171.8H1051.2z"/>
		<path class="st4" d="M853.7,427.5c0,0,18.1,65.7,68.6,79.8c0,0,44.7-28.8,33.3-100.7L853.7,427.5z"/>
		<g>
			<path class="st4" d="M818.4,364.3c0,0-12.2-3.8-11.8,9.9c0.4,13.7,13.3,24,17.9,24.7c4.6,0.8,7.6-0.8,7.6-0.8s10.3,22.1,24,33.1
				c13.7,11,41.9,25.1,63.6,19c21.7-6.1,37.3-28.2,40-49.9c2.7-21.7,0.8-33.5,0.8-33.5s11.4-6.5,13.7-19
				c2.3-12.6-4.9-19.8-13.3-22.5l-6.1-5.3c0,0-17.1-48.7-21.7-53.3c-4.6-4.6-87.5,8.8-122.9,46.1C810,313,807,334.3,818.4,364.3z"/>
			<path class="st5" d="M807,286.7c0,0-11,20.9-9.1,31.6c1.9,10.7,21.3,48.3,22.5,49.9c1.1,1.5,5.3,3.4,6.9-0.4
				c1.5-3.8-0.8-9.9-1.1-11c-0.4-1.1,4.2-17.5,2.3-24.4c-1.9-6.9-5.7-17.1-5.7-17.1s4.2-0.4,12.6-2.3s20.6-9.9,20.6-9.9
				s-10.3,8.8-3.8,10.7s44.2-11.8,57.1-25.1c12.9-13.3,12.9-13.3,12.9-13.3s6.1,26.3,12.2,32.7c6.1,6.5,9.1,4.2,9.9,3
				c0.8-1.1,5.3,19,7.2,23.6s4.6,6.5,5.7,2.7c1.1-3.8,0.8-6.1,1.1-7.6c0.4-1.5,2.7-4.2,2.7-4.2s-2.7-10.7-2.3-12.2
				c0.4-1.5,6.5-16.7-1.9-32.4c-8.4-15.6-10.3-19.8-19-20.9c-8.8-1.1-11.8-0.4-11.8-0.4s-18.3-14.5-38.1-16.7s-35.8,0-37.7,2.7
				c-1.9,2.7,10.7,2.7,10.7,2.7S819.5,257.8,807,286.7z"/>
			<ellipse class="st5" cx="911.3" cy="335.6" rx="4.2" ry="6.7"/>
			
				<ellipse transform="matrix(0.8929 -0.4502 0.4502 0.8929 -63.4163 426.6442)" class="st5" cx="865.2" cy="346.6" rx="4.2" ry="6.7"/>
			<path class="st5" d="M890.5,318.9l5.5,7.7c0,0,6.2-12.1,16.5-11.8c10.3,0.4,16.7,6.9,16.7,6.9s-0.4-9.6-4-12.9
				c-3.6-3.3-14-6.4-22-2.4C896.4,310,890.5,318.9,890.5,318.9z"/>
			<path class="st5" d="M870,319.2l2.7,8.4c0,0-25.1,6.5-35,6.5l-2.3-10.3C835.4,323.8,866.2,320.7,870,319.2z"/>
			<polygon class="st4" points="960.7,325.5 937.5,363.2 942.1,366.1 			"/>
			<polygon class="st4" points="819.5,367 858.3,378.4 855.3,384.1 			"/>
			<path class="st4" d="M942.7,366.5c-0.2-0.1-0.4-0.2-0.6-0.4c-13.9-8.5-31.8-12.5-48-11.7c-23.2,1.1-38.1,22.8-44.2,42.2
				c-3.5,11.1-3.8,20.5,0.1,29c1.9,2.1,3.9,4,6,5.7c13.7,11,41.9,25.1,63.6,19c17.8-5,31.5-20.8,37.3-38.2
				C958.2,402.3,961.3,378.2,942.7,366.5z"/>
		</g>
	</g>
	<g>
		<polyline class="st4" points="477.1,634 626.8,461 713.3,508.5 653,646 		"/>
		<path class="st3" d="M618.4,457.2c0,0-10,11.3-0.8,37.6c9.2,26.3,52.6,34,77.4,26.1c24.8-7.9,34.3-30.7,29.9-46.6
			C720.5,458.4,659.7,433.3,618.4,457.2z"/>
		<path class="st3" d="M591.4,416c0,0,12.6,28.2,19.3,42c6.7,13.8,5.8,34.6,28.7,45.8c22.8,11.2,57.5,11.6,74.9-3.8
			c17.4-15.4,22.4-54.3,19.5-65.6c-2.9-11.3,16.1-30.9,14.8-56.3c-1.4-25.4-14.9-35.3-8.8-57.4c6-22.1,18.1-48.1,11.1-70.2
			c-7-22-22.2-31.7-30.3-30.5c-8.1,1.1-10.1,8.4-8.6,28.6c1.5,20.2,0.6,45.1-5.7,62.5c-6.3,17.4-18.9,20-18.9,20
			s-44.9,8.4-62.4,32.1S591.8,406.9,591.4,416z"/>
		<path class="st3" d="M728.2,344.1c0,0-28.2-21.7-42.2-31.5c-14-9.8-43.5-31.7-51.6-24.5c-8.1,7.2-38.1,66.5-39.9,75
			c-1.9,8.5,4.4,32,4.4,32s26-47.5,40.6-45.2c14.7,2.3,75.9,33.7,84.4,32.6c8.5-1.2,16.5-11.1,14.3-22
			C736,348.9,728.2,344.1,728.2,344.1z"/>
		<path class="st3" d="M599.7,429.2c0,0-12.3-17-10.4-25c1.9-8.1,35.8-67.5,43.8-69.1c8-1.6,80.3,40.1,87.4,41.3
			c7.1,1.2,8.2,11.9,4.9,16.7s-18.9,4.4-28.4,1.8c-9.5-2.6-51.9-10.6-51.9-10.6l-26.2,36.2"/>
		<path class="st3" d="M602.6,428c0,0,21.2-41.2,27.6-48.6s17.8-3.3,23.7-1.1s58.4,20.1,61.4,23.2c3,3.1-0.3,10-3.4,16.1
			c-3.1,6.1-13.2,8.3-24.9,8.7c-11.7,0.3-32.7-3.7-32.7-3.7s0.2,7.4-8.9,11.2c-9,3.9-18.6,3.5-18.6,3.5"/>
		<path class="st4" d="M654.4,422.5c0,0-14.2-1.9-20.6-7.6"/>
		<g>
			<path class="st6" d="M656.9,203.4L708,380.3c1.3,4.5,6,7.2,10.6,5.9h0c4.7-1.3,7.3-6.3,5.8-11l-57.9-173.4
				C664.7,196.8,656.7,198,656.9,203.4z"/>
			
				<ellipse transform="matrix(0.9905 -0.1377 0.1377 0.9905 -45.1721 102.1746)" class="st5" cx="716.1" cy="377.6" rx="8.2" ry="8.5"/>
		</g>
		<g>
			<path class="st3" d="M634.4,288c8-7.1,36.5,13.9,50.8,24c6.9,1.4,13.2-0.6,18.4-4.5c7.1-5.3,8.4-18.8-0.2-26.5
				c-5.2-4.6-42.8-48.3-48-51.5c-5.2-3.2-20.5-3.7-24.8,6.1c-4.3,9.7-32.9,72.8-34.5,86c-1.1,8.8,2.8,18.8,5.5,24.5
				C611.4,325.3,628.6,293.2,634.4,288z"/>
			<path class="st2" d="M631.9,263c0,0,5.4,16.2,13.2,23.7"/>
			<path class="st2" d="M628.1,274.1c0,0,2.2,5.4,6.8,8.3"/>
		</g>
		<g>
			<path class="st6" d="M734.4,439.1c-2.2,0.3-4.4-1-5.1-3.2L711.6,379c-0.8-2.5,0.6-5.1,3.1-5.8c2.5-0.8,5.1,0.6,5.8,3.1l17.7,56.8
				c0.8,2.5-0.6,5.1-3.1,5.8C734.9,439,734.7,439,734.4,439.1z"/>
		</g>
		<g>
			
				<ellipse transform="matrix(0.9111 0.4122 -0.4122 0.9111 254.5287 -284.0254)" class="st6" cx="785.7" cy="448" rx="58.9" ry="38.4"/>
			
				<ellipse transform="matrix(0.9111 0.4122 -0.4122 0.9111 255.1243 -283.5846)" class="st5" cx="785" cy="449.6" rx="51.2" ry="31.6"/>
			<g class="st7">
				<path class="st8" d="M801.2,422.3L738.5,447c2.2,5.7,6.2,11.5,11.6,16.8l73.1-24.8C817.6,432.6,810.1,426.9,801.2,422.3z"/>
				<path class="st8" d="M831.6,470.7c0-0.1,0-0.1,0.1-0.2L800,485.3C814.9,485.8,827.1,480.7,831.6,470.7z"/>
			</g>
			
				<ellipse transform="matrix(0.9111 0.4122 -0.4122 0.9111 255.1243 -283.5846)" class="st2" cx="785" cy="449.6" rx="51.2" ry="31.6"/>
		</g>
	</g>
	<g>
		<polyline class="st4" points="1186.7,669.5 1119.4,495 1220.5,460.5 1340.9,637.6 		"/>
		
			<ellipse transform="matrix(0.9995 -3.198119e-002 3.198119e-002 0.9995 -14.5063 37.5807)" class="st3" cx="1167.5" cy="472.3" rx="56.6" ry="51.7"/>
		<path class="st3" d="M1184.9,301.1c-5.1-8.8-16.8-11-24.9-4.8c-5.4,4.2-11.3,8.2-15.9,9.8c-11.5,4-40.6-6.8-51.1-15
			c-10.6-8.2-18.3-12.4-18.3-12.4L1043,286c0,0,27.6,49.3,31.2,63.6c3.6,14.2,2.7,28.2,10.9,47.2c5.7,13.3,18.3,26.3,25.3,33
			l-7.3,3.3c0,0-6.1,23.7,9.2,49c15.2,25.3,41.5,41.1,76.4,28.7c34.9-12.5,40.1-63.5,39.3-88.9c-0.2-7.2-0.3-14-0.3-20.1
			c0.1-17.6-4.6-34.9-13.4-50.2L1184.9,301.1z"/>
		<path class="st3" d="M1169.5,469.6c-11-0.4-81.3-27.4-87.2-45.4c-5.9-18,6-25.6,6-25.6s-0.6-5.7,10.1-3
			c10.7,2.7,56.5,12.6,65.5,19.1c8.9,6.5,36.8,24.2,35.9,30c-1,5.7-8.2,15.1-11.2,18.2"/>
		<path class="st3" d="M1154,311.9c-0.4,0.2-0.9,0.5-1.3,0.7c-6.7,3.7-13.9,6.4-21,9.4c-12.4,5.2-24.9,10.5-37.3,15.8
			c-8.6,3.7-14.2,5.8-15.9,11.9c-1.7,6.1,1.2,14.4,11.9,17.1s75.2-7.7,79.1-4.8c3.9,2.9,48.2,35.6,51.2,35.2s14-20.1,14.5-28.4
			c0.5-8.4-7.2-24-13.8-28.4c-10.6-7-20.5-15-30.6-22.6c-4.1-3.1-9-8.4-13.8-10.5C1169.5,303.8,1160.7,308.2,1154,311.9z"/>
		<path class="st2" d="M1185.4,346.4c0,0-4.5,6.8-12.1,9.9"/>
		<path class="st3" d="M1085.7,363.8c0,0-6.4,0.6-9.1,12.4c-2.7,11.8,5.6,19.9,11.7,22.4c6.1,2.5,61.9,15.1,61.9,15.1
			s38.2,31,52.3,33.2c14.1,2.2,27.7-11.9,30-22.2c2.3-10.3-11.9-27.7-11.9-27.7s-43.6-35-47.8-36.8
			C1168.6,358.5,1085.7,363.8,1085.7,363.8z"/>
		<g>
			<g>
				<path class="st6" d="M1120.6,215.4l-71.2,185.8c-1.8,4.8,0.5,10.1,5.3,11.9l0,0c4.9,1.9,10.4-0.7,12.1-5.7l63.1-187.3
					C1131.7,214.7,1124,210.5,1120.6,215.4z"/>
				
					<ellipse transform="matrix(0.8732 0.4874 -0.4874 0.8732 331.1941 -464.4728)" class="st5" cx="1058.1" cy="404.1" rx="8.9" ry="9.2"/>
			</g>
			<g>
				<path class="st6" d="M1050.4,482.3c-0.8,0-1.6-0.2-2.3-0.6c-0.4-0.2-9.1-5.6-12.2-8.1c-5.1-4-2.9-11.8-2.7-12.6
					c0-0.1,0-0.1,0.1-0.2l20.9-58c0.8-2.2,3.2-3.3,5.4-2.5c2.2,0.8,3.3,3.2,2.5,5.4l-20.8,57.8c-0.4,1.3-0.4,3.2-0.1,3.6
					c2.2,1.7,9,6,11.4,7.5c2,1.2,2.6,3.8,1.3,5.8C1053,481.5,1051.7,482.2,1050.4,482.3z"/>
			</g>
		</g>
		<path class="st3" d="M1086.3,267.1c0,0-7.4-21.3-15.6-23.7s-37.8,10.6-32.6,32.9c5.2,22.2,25.7,45.8,30.2,47
			c4.5,1.2,24.4-9.3,25-17.8C1094,296.9,1089.7,274.2,1086.3,267.1z"/>
		<path class="st2" d="M1136.2,459.3c0,0,10,14.9,17,23"/>
		<path class="st2" d="M1134.2,468.9c0,0,2.6,10.9,5.8,15"/>
		<g>
			<path class="st3" d="M1146.4,232.6c0,0-40.1,37.7-50.5,46.4c-10.3,8.7-14.4,11.5-11.4,22.7c3,11.3,11.8,14.4,22.4,13.3
				c10.6-1.1,47.8-23.5,47.8-23.5s56.1,41.5,63.4,46.5c3.3,2.2,6.5-18.7,9.9-29.8c0.9-2.8,0.8-6.4,0.3-10.1
				c-1.9-13-9.8-24.4-21.1-31.2c-9.3-5.6-21.1-12.9-28.5-17.8C1165.2,239.9,1157.2,228.8,1146.4,232.6z"/>
			<path class="st2" d="M1171.2,273.1c0,0-1.2,7.7-12.4,13.7"/>
			<path class="st2" d="M1184.3,310.3c0,0,8.1,0.2,18.8-6.8"/>
		</g>
	</g>
	<g>
		<path class="st9" d="M626.4,121.3c46.7,16.2,177.8,54.9,332.8,41.2c100.9-8.9,180-29.5,233.1-50.2
			c-78.2-54.5-168.4-93.8-251.9-93.8C845.9,18.5,728.2,59.5,626.4,121.3z"/>
		<g>
			<path class="st10" d="M741.7,86.5c0,0,14.1-19.8,28.9-22.6c14.8-2.8,31.8,18.4,35.3,36c0,0-16.2-16.9-34.6-19.8
				C753,77.3,741.7,86.5,741.7,86.5z"/>
			<path class="st10" d="M648,61.6c0,0,16.2-18.1,31.3-19.2c15-1.2,29.5,21.8,31.1,39.7c0,0-14.2-18.6-32.2-23.5
				C660.3,53.8,648,61.6,648,61.6z"/>
			<path class="st10" d="M1009.1,95.4c0,0,5.7-23.6,18.4-31.8c12.7-8.2,36.3,5.1,46.2,20.1c0,0-21.4-9.6-39.5-5.4
				C1016.2,82.7,1009.1,95.4,1009.1,95.4z"/>
			<path class="st10" d="M1098.8,74.2c0,0,5.7-23.6,18.4-31.8c12.7-8.2,36.3,5.1,46.2,20.1c0,0-21.4-9.6-39.5-5.4
				C1105.8,61.5,1098.8,74.2,1098.8,74.2z"/>
			<path class="st10" d="M819.5,94.1c0,0,17.7-27.2,33.6-33.6s33.4,15.6,41.1,34.6c0,0-15.7-17.4-36.8-16.6
				C836.3,79.4,819.5,94.1,819.5,94.1z"/>
			<path class="st10" d="M912.6,98.3c0,0,14.3-30.5,29.8-39.3s36.5,11.4,47.2,29.8c0,0-18.6-15.7-40.2-11.9
				C927.8,80.7,912.6,98.3,912.6,98.3z"/>
		</g>
		<g>
			<path class="st4" d="M902.7,188.7c0.3-4.6-0.1-9-0.2-12.9c-0.8-25.2-2.8-54.5-23.8-71.8c-6.3-5.2-14.1-8.8-22.2-9.2
				c-48.9-2.5-58.9,86.8-59.9,120.4c-0.2,5.9,0.1,12.3,3.9,16.7c3.4,4,8.8,5.4,13.9,6.4c17.3,3.5,34.9,4.9,52.5,4.2
				c6-0.3,13.3,0.1,19-1.8C899.1,236.1,900.3,232.5,902.7,188.7z"/>
			<path class="st10" d="M886.3,119.9c0,0-9.4-17.3-24.7-20.8c-15.3-3.5-32.2,4.7-41.6,25.1c-9.4,20.4-16.9,66-18.1,79.7
				c-1.2,13.7,8.2,21.2,36.1,24c27.9,2.7,56.6-1.6,60.1-11.8c3.5-10.2,2.7-43.6-2-64.8C891.4,130.1,886.3,119.9,886.3,119.9z"/>
			<path class="st2" d="M869.9,226.1c17-2.4,24.7-6.4,24.7-6.4"/>
			<path class="st2" d="M814.3,222c7.9,3.1,19.8,6.1,35.4,5.7c5.7-0.1,10.8-0.5,15.3-1"/>
			<path class="st2" d="M802.4,215.7c0,0,1,0.8,3,2"/>
			<path class="st4" d="M1090.9,127.5c0.8-9.9,3.9-19.6,9.4-27.9c3.1-4.6,7.1-9.8,12.5-15.1c16.7-16.7,40.9-16.7,51.8-2.5
				c10.9,14.2,20,71.8,9.2,88.5c-10.9,16.7-44.3,19.2-54.3,15.9c-10-3.3-25.9-15.9-28.4-29.2
				C1089.7,149.3,1090.2,136.7,1090.9,127.5z"/>
			<path class="st10" d="M1166.7,94.4c0,0-3.5-14.9-17.7-18.5c-14.1-3.5-22.8,0.4-36.5,14.9c-13.7,14.5-20,28.3-18.5,51.1
				c1.6,22.8,11,35.3,30.6,40.5c19.6,5.1,47.9-9,49.5-32.6C1175.7,126.2,1175.3,107.7,1166.7,94.4z"/>
			<path class="st4" d="M1003.4,131.7c0,0-2.8-13.1,19.6-26.1c22.4-13.1,54.1-11.2,60.6,3.7s6.5,63.4,2.8,76.5
				c-3.7,13.1-23.6,18.2-43.8,21.5c-20.2,3.3-26.1-0.9-28.9-9.3C1010.8,189.5,1003.4,131.7,1003.4,131.7z"/>
			<path class="st10" d="M1083.8,184.7c0,0,3.1-30.2-0.4-54.6c-3.5-24.4-15.7-27.5-27.9-28.3c-12.2-0.8-37.4,11-44.8,20.4
				c-7.4,9.4,1.6,60.9,5.5,68.3c3.9,7.5,20.4,9.4,30.6,9.4C1057.1,200,1082.3,192.2,1083.8,184.7z"/>
			<path class="st4" d="M905.9,185.5c-0.3-4.6,0.1-9,0.2-12.9c0.8-25.2,2.8-54.5,23.8-71.8c6.3-5.2,14.1-8.8,22.2-9.2
				c48.9-2.5,58.9,86.8,59.9,120.4c0.2,5.9-0.1,12.3-3.9,16.7c-3.4,4-8.8,5.4-13.9,6.4c-17.3,3.5-34.9,4.9-52.5,4.2
				c-6-0.3-13.3,0.1-19-1.8C909.4,232.9,908.3,229.2,905.9,185.5z"/>
			<path class="st10" d="M990.8,124.2c0,0-6.3-14.9-19.6-22.4c-13.4-7.5-28.7-8.6-42,3.5c-13.4,12.2-16.1,32.2-18.9,62.8
				c-2.7,30.6-2.7,44.8,11,51.8c13.7,7.1,50.3,5.9,66,0.4c15.7-5.5,22.4-11.4,21.6-25.1C1008,181.6,997,136.4,990.8,124.2z"/>
			<path class="st4" d="M1182.9,138.9c0,0-9.3-26.1-12.1-51.3c-2.8-25.2,3.7-40.1,20.5-52.2c16.8-12.1,55-10.3,69,12.1
				c14,22.4,29.8,55,16.8,73.7C1262.9,141.5,1195.6,174.7,1182.9,138.9z"/>
			<path class="st10" d="M1277.9,106.2c0,0-1.6-19.2-11-40.8c-9.4-21.6-26.7-31.8-43.6-34.2c-16.9-2.4-42.4,13.4-47.9,25.1
				c-5.5,11.8,1.6,55,5.9,65.6c4.3,10.6,7.5,18.9,30.2,24.7c22.8,5.9,43.6-10.6,53.8-24C1275.5,109.3,1277.9,106.2,1277.9,106.2z"/>
			<path class="st2" d="M1217.6,146.5c-23.4,1.5-32.8-15.7-32.8-15.7"/>
			<path class="st2" d="M1250.1,133.7c-5.8,4-12.4,7.6-19.3,10"/>
			<path class="st2" d="M1273,113.9c0,0-5.7,6.4-14.5,13.5"/>
			<path class="st2" d="M1137.7,181.4c-12,1.8-19.5-1.7-28.2-9"/>
			<path class="st2" d="M1168.1,158c0,0-4.3,13-16.8,19.4"/>
			<path class="st2" d="M1055,197.3c-1.5,0.3-3.2,0.5-4.9,0.8c-27.3,4-25.7-4-25.7-4"/>
			<path class="st2" d="M1077.4,190.1c0,0,0,2.7-15.4,6"/>
			<path class="st2" d="M950.1,224.1c-25.1-1.7-36.1-7.6-36.1-7.6"/>
			<path class="st2" d="M1006.2,212.4c0,0-16,12.8-47.3,12"/>
			<path class="st4" d="M719.4,122.4c0,0-4.2-15-20.9-31.7C681.8,74,657.6,74,646.7,88.1s-20,71.8-9.2,88.5
				c10.9,16.7,44.3,19.2,54.3,15.9c10-3.3,25.9-15.9,28.4-29.2C722.7,149.9,719.4,122.4,719.4,122.4z"/>
			<path class="st10" d="M653.8,83.8c0,0-5.9-1.2-11.8,29.1c-5.9,30.2-4.7,47.1,4.3,59.3c9,12.2,18.1,17.3,38.1,14.1
				c20-3.1,28.7-7.9,32.6-27.9c3.9-20,3.1-29.1-2-39.3c-5.1-10.2-14.1-27.5-31.8-35C665.5,76.7,653.8,83.8,653.8,83.8z"/>
			<path class="st4" d="M808,137.9c0,0,2.8-13.1-19.6-26.1c-22.4-13.1-54.1-11.2-60.6,3.7c-6.5,14.9-6.5,63.4-2.8,76.5
				c3.7,13.1,23.6,18.2,43.8,21.5c20.2,3.3,26.1-0.9,28.9-9.3C800.5,195.7,808,137.9,808,137.9z"/>
			<path class="st10" d="M805.4,141.5c0,0-0.8-10.2-7.1-17.3c-6.3-7.1-33-17.3-46-17.3c-13,0-18.5,5.9-22.4,19.2
				c-3.9,13.4-6.3,50.7-2.4,61.3c3.9,10.6,25.1,19.2,39.7,18.9c14.5-0.4,23.6,3.5,28.3-9C800.3,184.7,806.9,158.4,805.4,141.5z"/>
			<path class="st4" d="M625.2,143.5c0,0,9.3-26.1,12.1-51.3c2.8-25.2-3.7-40.1-20.5-52.2c-16.8-12.1-55-10.3-69,12.1
				c-14,22.4-29.8,55-16.8,73.7C545.2,146,612.4,179.2,625.2,143.5z"/>
			<path class="st10" d="M554.8,47.6c0,0-22,40.8-22.8,55.4c-0.8,14.5,14.1,31.4,29.8,38.5c15.7,7.1,19.9,13.8,41.6,7.9
				c21.7-5.9,23.2-16.1,27.5-36.9c4.3-20.8,3.9-46-3.1-57.7s-25.9-19.2-41.2-18.5C571.3,37,565.4,39.4,554.8,47.6z"/>
			<path class="st2" d="M592,151.1c22.3,0.7,31.2-15.8,31.2-15.8"/>
			<path class="st2" d="M535,118.4c0,0,18.4,20.7,40.3,29.1"/>
			<path class="st2" d="M662,184.5c1.2,0.5,2.4,1,3.8,1.3c16.8,4.8,25.7,1.6,36.1-7.2"/>
			<path class="st2" d="M643.3,164.2c0,0,2.6,7.8,9.6,14.3"/>
			<path class="st2" d="M761.3,204.3c27.3,4,25.7-4,25.7-4"/>
			<path class="st2" d="M734,196.3c0,0,0,3.5,21.9,7.2"/>
		</g>
	</g>
	<g>
		<path class="st9" d="M638.1,660.6c96.2,28.3,118,67.9,283.4,80.1c87.3,6.4,188.8-29.3,270-67.6c-53.2-20.5-131.9-41-232.3-49.8
			C815.6,610.6,692.6,642.8,638.1,660.6z"/>
		<g>
			<path class="st10" d="M697.4,688.7c0,0,11.8,17.8,24.3,20.4c12.4,2.5,26.6-16.6,29.6-32.5c0,0-13.6,15.3-29,17.8
				C706.9,697,697.4,688.7,697.4,688.7z"/>
			<path class="st10" d="M627.8,703.2c0,0,16.2,18.1,31.3,19.2c15,1.2,29.5-21.8,31.1-39.7c0,0-14.2,18.6-32.2,23.5
				C640,711.1,627.8,703.2,627.8,703.2z"/>
			<path class="st10" d="M1009.1,668.9c0,0,5.7,23.6,18.4,31.8c12.7,8.2,36.3-5.1,46.2-20.1c0,0-21.4,9.6-39.5,5.4
				C1016.2,681.7,1009.1,668.9,1009.1,668.9z"/>
			<path class="st10" d="M1074.7,678.8c0,0,5.7,23.6,18.4,31.8c12.7,8.2,36.3-5.1,46.2-20.1c0,0-21.4,9.6-39.5,5.4
				C1081.7,691.5,1074.7,678.8,1074.7,678.8z"/>
			<path class="st10" d="M1143.6,696.1c0,0,5.7,23.6,18.4,31.8c12.7,8.2,36.3-5.1,46.2-20.1c0,0-21.4,9.6-39.5,5.4
				C1150.6,708.8,1143.6,696.1,1143.6,696.1z"/>
			<path class="st10" d="M814.5,670.6c0,0,14.1,21.7,26.8,26.8c12.7,5.1,26.6-12.5,32.8-27.6c0,0-12.5,13.9-29.4,13.3
				C827.9,682.3,814.5,670.6,814.5,670.6z"/>
			<path class="st10" d="M751.6,676.4c0,0,17.3,19.3,30.6,22.3c13.4,3.1,24.4-16.4,28.2-32.3c0,0-10.2,15.7-27,17.6
				C766.6,686,751.6,676.4,751.6,676.4z"/>
			<path class="st10" d="M887,669.7c0,0,10.6,22.5,22,29c11.5,6.5,27-8.4,34.9-22c0,0-13.7,11.6-29.7,8.8
				C898.2,682.6,887,669.7,887,669.7z"/>
			<path class="st10" d="M948.8,668.6c0,0,10.6,22.5,22,29c11.5,6.5,27-8.4,34.9-22c0,0-13.7,11.6-29.7,8.8
				C960,681.5,948.8,668.6,948.8,668.6z"/>
		</g>
		<g>
			<path class="st4" d="M875.8,594.8c-0.2,3.5,0.1,6.9,0.2,10c0.6,19.5,2.1,42,18.6,55.4c4.9,4,11,6.8,17.3,7.1
				c38.1,1.9,45.9-67,46.7-92.9c0.1-4.5,0-9.5-3-12.9c-2.6-3-6.9-4.2-10.8-5c-13.5-2.7-27.2-3.8-41-3.2c-4.7,0.2-10.3-0.1-14.8,1.4
				C878.5,558.3,877.6,561.1,875.8,594.8z"/>
			<path class="st10" d="M952.1,595.7c0,0,8.7-18.4-9.2-27.1c-17.9-8.7-44.9-4.3-52.8-1c-8,3.3-6.8,21.3-8.7,45.6
				c-1.9,24.2,13.6,55.3,30.6,54.1s28.1-19.7,35.4-41.5C954.5,604,952.1,595.7,952.1,595.7z"/>
			<path class="st4" d="M804.9,603.3c0.5,3.3,1.4,6.5,2,9.3c4.1,18,9.7,38.7,26.5,48.2c5,2.8,10.8,4.3,16.4,3.4
				c33.6-5.2,27.6-70.8,23.5-95.1c-0.7-4.2-1.8-8.8-5-11.5c-2.9-2.4-6.8-2.6-10.4-2.6c-12.2-0.1-24.5,1.5-36.3,4.5
				c-4.1,1-9,1.8-12.6,4C800.5,568.8,800.2,571.5,804.9,603.3z"/>
			<path class="st10" d="M872.4,580.8c0,0-2.2-16.5-12.5-19.1c-10.3-2.6-49.5,8.1-50.2,14.7c-0.7,6.6-1.1,36.7,7.7,56.4
				c8.8,19.8,15.4,32.6,33,27.9c17.6-4.8,22.1-28.5,23.8-42.2C875.9,604.8,872.4,580.8,872.4,580.8z"/>
			<path class="st4" d="M743.3,610.8c0.5,3.1,1.3,6,1.9,8.7c3.9,16.8,9,36.2,24.7,45c4.7,2.6,10.1,4,15.3,3.2
				c31.3-4.9,25.8-66.1,21.9-88.8c-0.7-4-1.7-8.2-4.7-10.7c-2.7-2.2-6.3-2.4-9.7-2.4c-11.4-0.1-22.8,1.4-33.9,4.2
				c-3.8,1-8.4,1.7-11.8,3.8C739.2,578.5,738.9,581.1,743.3,610.8z"/>
			<path class="st10" d="M804.9,577.8c0,0-8.4-5.1-23.5-2.2c-13.7,2.7-16.1-0.4-24.2,5.1c-8.1,5.5-4.8,15.4-2.9,31.9
				c1.8,16.5-2.6,34.5,10.6,45.8c13.2,11.4,27.5,9.9,34.8-4C807.1,640.5,810.8,609.4,804.9,577.8z"/>
			<path class="st2" d="M910.2,565.1c-19.5,1.3-28.2,5.9-28.2,5.9"/>
			<path class="st2" d="M954,574c0,0-12.5-9.9-36.9-9.3"/>
			<path class="st4" d="M707.6,568.3c0,0-22.2,22.8-25.9,35.5c-3.7,12.7-6.2,53.9,4.3,63.4c10.5,9.5,28.4,14.6,46.3,7.6
				c17.9-7,22.2-17.8,22.2-30.4c0-12.7,0.6-43.1-6.8-57.7C740.3,572.1,722.4,558.8,707.6,568.3z"/>
			<path class="st10" d="M750,605c0,0-9.2-17.6-18.3-25.3c-9.2-7.7-30.1,3.3-39.2,23.8c-9.2,20.5-10.3,42.9-9.2,49.5
				c1.1,6.6,8.4,23.5,32.6,22c24.2-1.5,34.1-16.1,35.6-27.9C752.9,635.4,752.5,613,750,605z"/>
			<path class="st2" d="M724.1,574.7c8.3,3,16.8,15.2,16.8,15.2"/>
			<path class="st2" d="M702.1,590.5c0,0,6.7-11.9,14.3-15.5"/>
			<path class="st2" d="M777.5,575.3c11.5-1,18.9-1.9,18.9-1.9"/>
			<path class="st2" d="M753.3,587.4c0,0,1.9-10.1,17.3-11.4"/>
			<path class="st2" d="M815.6,571.5c0,0,37-10.1,41.9-9.5c4.9,0.6,9.9,5.7,9.9,5.7"/>
			<path class="st4" d="M1025.5,607.8c-0.5,3.3-1.4,6.5-2,9.3c-4.1,18-9.7,38.7-26.5,48.2c-5,2.8-10.8,4.3-16.4,3.4
				c-33.6-5.2-27.6-70.8-23.5-95.1c0.7-4.2,1.8-8.8,5-11.5c2.9-2.4,6.8-2.6,10.4-2.6c12.2-0.1,24.5,1.5,36.3,4.5c4.1,1,9,1.8,12.6,4
				C1029.8,573.3,1030.1,576,1025.5,607.8z"/>
			<path class="st10" d="M1021.4,577.8c0,0-32-10.2-41.7-11.1c-9.7-1-21.8,7.8-23.8,24.7c-1.9,17,1.5,53.8,9.7,64.5
				c8.2,10.7,19.9,15,33,4.8c13.1-10.2,15-23.3,17.9-34.9C1019.4,614.2,1021.4,577.8,1021.4,577.8z"/>
			<path class="st4" d="M1087,615.2c-0.5,3.1-1.3,6-1.9,8.7c-3.9,16.8-9,36.2-24.7,45c-4.7,2.6-10.1,4-15.3,3.2
				c-31.3-4.9-25.8-66.1-21.9-88.8c0.7-4,1.7-8.2,4.7-10.7c2.7-2.2,6.3-2.4,9.7-2.4c11.4-0.1,22.8,1.4,33.9,4.2
				c3.8,1,8.4,1.7,11.8,3.8C1091.1,583,1091.4,585.6,1087,615.2z"/>
			<path class="st10" d="M1026.3,581.5c0,0,8.4-5.1,23.5-2.2c13.7,2.7,16.1-0.4,24.2,5.1c8.1,5.5,4.8,15.4,2.9,31.9
				c-1.8,16.5,2.6,34.5-10.6,45.8c-13.2,11.4-27.5,9.9-34.8-4C1024.1,644.2,1020.4,613,1026.3,581.5z"/>
			<path class="st4" d="M1122.7,572.8c0,0,22.2,22.8,25.9,35.5c3.7,12.7,6.2,53.9-4.3,63.4c-10.5,9.5-28.4,14.6-46.3,7.6
				c-17.9-7-22.2-17.8-22.2-30.4c0-12.7-0.6-43.1,6.8-57.7C1090,576.6,1107.9,563.3,1122.7,572.8z"/>
			<path class="st10" d="M1079.9,608.6c0,0,9.2-17.6,18.3-25.3c9.2-7.7,30.1,3.3,39.2,23.8c9.2,20.5,10.3,42.9,9.2,49.5
				c-1.1,6.6-8.4,23.5-32.6,22c-24.2-1.5-34.1-16.1-35.6-27.9C1077,639.1,1077.3,616.7,1079.9,608.6z"/>
			<path class="st2" d="M1120.6,584.7c-3.2-3.3-7-6.2-10.9-6.2c-9.3,0-20.4,15.9-20.4,15.9"/>
			<path class="st2" d="M1128.2,595c0,0-1.2-2.1-3.1-4.8"/>
			<path class="st2" d="M1057.4,580.2c-14.1-1.2-23.6-2.3-23.6-2.3"/>
			<path class="st2" d="M1077.1,591.8c0,0-1.3-6.9-10.4-10.1"/>
			<path class="st2" d="M999.7,569.8c-11.1-1.8-24.1-3.7-26.9-3.3c-4.9,0.6-9.9,5.7-9.9,5.7"/>
			<path class="st2" d="M1016.6,572.6c0,0-3.5-0.6-8.6-1.4"/>
			<path class="st4" d="M614.4,638c0.5,3.1,1.3,6,1.9,8.7c3.9,16.8,9,36.2,24.7,45c4.7,2.6,10.1,4,15.3,3.2
				c31.3-4.9,25.8-66.1,21.9-88.8c-0.7-4-1.7-8.2-4.7-10.7c-2.7-2.2-6.3-2.4-9.7-2.4c-11.4-0.1-22.8,1.4-33.9,4.2
				c-3.8,1-8.4,1.7-11.8,3.8C610.3,605.8,610,608.3,614.4,638z"/>
			<path class="st10" d="M677,612.1c0,0,2.6-3.6-15.9-3.1c-18.5,0.5-39.1,4.1-40.6,11.3c-1.5,7.2,3.6,43.7,11.3,54.5
				c7.7,10.8,5.7,22.1,26.7,15.9c21.1-6.2,21.1-38,20.6-46.8C678.5,635.2,677,612.1,677,612.1z"/>
			<path class="st4" d="M625.4,662.6c-1-5.5-2.1-11.1-2.9-16.6c-1.4-10.8-2.8-22.9-9.2-32c-4.9-7-22.8-14-47.5-7
				c-24.7,7-35.2,20.9-39.5,36.8c-4.3,15.9,13.6,72.9,18.5,78.7c4.9,5.7,37.6,13.3,59.2,2.5c15.8-7.9,23.5-26.2,23.4-43.5
				C627.4,675.1,626.5,668.9,625.4,662.6z"/>
			<path class="st10" d="M619.9,632.7c0,0-3.6-10.8-13.9-10.3c-10.3,0.5-22.6,8.2-43.2,15.9c-20.6,7.7-19,21.6-17,50.4
				c2.1,28.8,12.3,39.1,34.4,40.1c22.1,1,36.2-16.4,41.6-31.9C627.4,681.5,626.6,651.4,619.9,632.7z"/>
			<path class="st2" d="M548.5,628c2.3-2,5.4-3.7,9.3-4.5c15.4-3.2,22.8-4.4,30.8-8.2c8-3.8,10.5-3.2,14.2-1.9"/>
			<path class="st2" d="M540.5,643.2c0,0,0.5-4.4,3.1-9"/>
			<path class="st4" d="M1215.9,642.5c-0.5,3.1-1.3,6-1.9,8.7c-3.9,16.8-9,36.2-24.7,45c-4.7,2.6-10.1,4-15.3,3.2
				c-31.3-4.9-25.8-66.1-21.9-88.8c0.7-4,1.7-8.2,4.7-10.7c2.7-2.2,6.3-2.4,9.7-2.4c11.4-0.1,22.8,1.4,33.9,4.2
				c3.8,1,8.4,1.7,11.8,3.8C1220,610.2,1220.3,612.8,1215.9,642.5z"/>
			<path class="st10" d="M1156.3,607.5c0,0-2.5-4,15.8-3.4c18.3,0.6,38.7,4.5,40.3,12.4c1.5,7.9-2.8,53.1-11.4,64.3
				c-7.5,9.7-10.8,19.4-31.8,13c-21-6.5-18.1-43.5-17.6-53.1C1152.1,631.1,1156.3,607.5,1156.3,607.5z"/>
			<path class="st4" d="M1205,667.1c1-5.5,2.1-11.1,2.9-16.6c1.4-10.8,2.8-22.9,9.2-32c4.9-7,22.8-14,47.5-7
				c24.7,7,35.2,20.9,39.5,36.8c4.3,15.9-13.6,72.9-18.5,78.7c-4.9,5.7-37.6,13.3-59.2,2.5c-15.8-7.9-23.5-26.2-23.4-43.5
				C1202.9,679.6,1203.8,673.4,1205,667.1z"/>
			<path class="st10" d="M1217.4,630.4c0,0,4.9-11.6,16.2-11c11.2,0.6,24.1,8.8,46,17.1c21.9,8.3,18.9,23.1,14,54
				c-4.9,30.9-17.1,41.9-41.5,43s-38.2-17.6-42.8-34.2C1204.7,682.8,1208.4,650.5,1217.4,630.4z"/>
			<path class="st2" d="M1265.4,626.5c-10.7-2.2-17-3.6-23.6-6.8c-8-3.8-10.5-3.2-14.2-1.9"/>
			<path class="st2" d="M1289.8,647.7c0,0-1.4-12.6-12.1-17.9"/>
			<path class="st2" d="M663.7,597.7c5.4,0.5,8.9,4.9,9.9,6.4"/>
			<path class="st2" d="M620.2,612.1c0,0,1-6.9,4-7.9c1.9-0.6,15.8-3.4,26.7-5.1"/>
			<path class="st2" d="M1207.2,612.1c4,3.5,2.5,8.9,2.5,8.9"/>
			<path class="st2" d="M1159.7,608.6c0,0,5.4-4,12.4-4.9c4.1-0.6,14.4,1.3,22.9,3.6"/>
		</g>
	</g>
</g>
</svg>
