<?xml version="1.0" encoding="utf-8"?>
<!-- Generator: Adobe Illustrator 19.0.0, SVG Export Plug-In . SVG Version: 6.00 Build 0)  -->
<svg version="1.1" id="Layer_1" xmlns="http://www.w3.org/2000/svg" xmlns:xlink="http://www.w3.org/1999/xlink" x="0px" y="0px"
	 viewBox="294 -4 1200 800" style="enable-background:new 294 -4 1200 800;" xml:space="preserve">
<style type="text/css">
	.st0{fill:#71BF9D;}
	.st1{fill:none;stroke:#E57E55;stroke-width:0.9971;stroke-linecap:round;stroke-linejoin:round;stroke-miterlimit:10;}
	.st2{fill:none;stroke:#E57E55;stroke-width:0.7983;stroke-linecap:round;stroke-linejoin:round;stroke-miterlimit:10;}
	.st3{fill:#FFFFFF;}
	.st4{fill:#FFD25A;}
	.st5{fill:#FFBE57;}
	.st6{fill:none;stroke:#FFFFFF;stroke-width:0.9735;stroke-miterlimit:10;}
	.st7{fill:#764582;}
	.st8{fill:#9D68AA;}
	.st9{fill:#FFFFFF;stroke:#764582;stroke-width:0.9736;stroke-miterlimit:10;}
	.st10{fill-rule:evenodd;clip-rule:evenodd;fill:#764582;}
	.st11{fill-rule:evenodd;clip-rule:evenodd;fill:#FFFFFF;stroke:#764582;stroke-width:1.0244;stroke-miterlimit:10;}
	.st12{fill:none;stroke:#764582;stroke-width:1.265;stroke-miterlimit:10;}
	.st13{fill:#FFFFFF;stroke:#764582;stroke-width:1.0244;stroke-linecap:round;stroke-linejoin:round;stroke-miterlimit:10;}
	.st14{opacity:0.7;fill:#A1ABAD;}
	.st15{fill:#DD4026;}
	.st16{fill:#E2E2E2;}
	.st17{fill:#FD6141;}
	.st18{fill:none;}
	.st19{fill:none;stroke:#EFE9DA;stroke-width:1.1573;stroke-linecap:round;stroke-miterlimit:10;}
	.st20{fill:none;stroke:#EFE9DA;stroke-width:1.1573;stroke-miterlimit:10;}
	.st21{fill:#3C8460;}
	.st22{opacity:0.2;fill:#764582;}
	.st23{fill:#E4BCE8;}
	.st24{fill:none;stroke:#FFFFFF;stroke-width:0.9734;stroke-miterlimit:10;}
	.st25{fill:#FDEEFF;}
	.st26{fill:#A1ABAD;}
	.st27{fill:#FFCC5A;stroke:#764582;stroke-width:0.9736;stroke-miterlimit:10;}
	.st28{fill-rule:evenodd;clip-rule:evenodd;fill:#9D68AA;}
	.st29{fill:#FFB072;}
	.st30{fill:#3E2344;}
	.st31{fill:#FFDCAE;}
	.st32{fill:#FFFFFF;stroke:#FD6141;stroke-width:1.8544;stroke-linecap:round;stroke-linejoin:round;stroke-miterlimit:10;}
	.st33{fill:#FF8976;}
	.st34{fill:#F99441;}
	.st35{clip-path:url(#SVGID_2_);fill:#FFAEC1;}
	.st36{clip-path:url(#SVGID_2_);fill:#FFB072;}
	.st37{fill:#552F5E;}
	.st38{fill:#F29353;}
	.st39{clip-path:url(#SVGID_4_);fill:#FFAEC1;}
	.st40{clip-path:url(#SVGID_4_);fill:#FFB072;}
	.st41{fill:none;stroke:#FFFFFF;stroke-width:0.4986;stroke-miterlimit:10;}
	.st42{fill-rule:evenodd;clip-rule:evenodd;fill:#FFB072;}
	.st43{fill:#E57E55;}
	.st44{opacity:0.5;fill:#E57E55;}
	.st45{opacity:0.7;fill-rule:evenodd;clip-rule:evenodd;fill:#A1ABAD;}
	.st46{fill:none;stroke:#FFFFFF;stroke-width:0.4986;stroke-linecap:round;stroke-linejoin:round;stroke-miterlimit:10;}
	.st47{fill-rule:evenodd;clip-rule:evenodd;fill:#FD6141;}
	.st48{opacity:0.5;}
	.st49{fill-rule:evenodd;clip-rule:evenodd;fill:#DD4026;}
	.st50{clip-path:url(#SVGID_6_);fill:#DD4026;}
	.st51{fill:#F7B614;}
	.st52{opacity:0.5;fill:#FFBE57;}
	.st53{clip-path:url(#SVGID_8_);fill:#DD4026;}
	.st54{fill:none;stroke:#FFFFFF;stroke-width:0.4986;stroke-linecap:round;stroke-miterlimit:10;}
	.st55{opacity:0.3;fill:#764582;}
</style>
<g>
	<g>
		<path class="st0" d="M1316.8,517.9c-3.4-17.6-36.2-20.5-36.2-20.5s19.1-31.9,5.6-46.3c-13.6-14.4-44.7,19.5-44.7,19.5
			s-10.3-21.4-25.6,0c0,0-25.5-19.5-47.6-9.5c-15.8,7.2-13.4,26-10.8,36.3H724.3c-0.4-0.8-0.8-1.5-1.4-2.2
			c-14.6-17.7-57.1-8.6-57.1-8.6s17.7-43.8-11.5-57c-29.2-13.3-63,12.5-63,12.5c-20.3-28.4-33.9,0-33.9,0s-41.3-44.9-59.3-25.8
			c-18,19.1,7.4,61.4,7.4,61.4s-43.4,3.9-47.9,27.2c-4.5,23.3,75,47.6,75,47.6l727.5,1.4C1260.1,553.8,1320.2,535.5,1316.8,517.9z"
			/>
		<g>
			<path class="st1" d="M572.7,545.5c-13.1-37.1-32.9-71.7-58.3-101.7"/>
			<path class="st1" d="M572.7,546.9c1-29.2,4.1-58.4,9.1-87.3"/>
			<path class="st1" d="M564.8,526.5c-18.9-9.4-39.1-15.9-59.9-19.3"/>
			<path class="st1" d="M545.5,486.8c3.8-8.8,6.4-18.2,7.7-27.7"/>
		</g>
		<g>
			<path class="st2" d="M1227.3,548.8c10.5-29.7,26.4-57.4,46.7-81.4"/>
			<path class="st2" d="M1227.3,549.8c-0.8-23.4-3.2-46.8-7.3-69.9"/>
			<path class="st2" d="M1233.6,533.6c15.1-7.5,31.3-12.7,48-15.5"/>
			<path class="st2" d="M1249,501.8c-3-7.1-5.1-14.6-6.2-22.2"/>
		</g>
		<g>
			<g>
				<g>
					<path class="st3" d="M535.6,426.6c0.4,0.1,0.6,0.3,0.9,0.5c0.2,0.2,0.5,0.4,0.7,0.8c0.2,0.4,0,0.9-0.4,1.1
						c-0.2,0.1-0.3,0.1-0.5,0.1c-0.4-0.1-0.6-0.3-0.9-0.5c-0.2-0.2-0.5-0.4-0.7-0.8c-0.2-0.4,0-0.9,0.4-1.1
						C535.3,426.5,535.5,426.5,535.6,426.6z"/>
				</g>
				<g>
					<path class="st3" d="M538.6,428.9c0.4,0.1,0.6,0.3,0.9,0.5c0.2,0.2,0.5,0.5,0.6,0.8c0.2,0.4,0,0.9-0.4,1
						c-0.2,0.1-0.3,0.1-0.5,0c-0.4-0.1-0.6-0.3-0.9-0.5c-0.2-0.2-0.5-0.5-0.6-0.8c-0.2-0.4,0-0.9,0.4-1.1
						C538.2,428.9,538.4,428.9,538.6,428.9z"/>
				</g>
				<g>
					<path class="st3" d="M541.5,431.4c0.4,0.1,0.6,0.3,0.9,0.5c0.2,0.2,0.5,0.5,0.6,0.8c0.2,0.4,0,0.9-0.5,1
						c-0.2,0.1-0.3,0.1-0.5,0c-0.4-0.1-0.6-0.3-0.9-0.5c-0.2-0.2-0.5-0.5-0.6-0.8c-0.2-0.4,0-0.9,0.4-1
						C541.1,431.4,541.3,431.4,541.5,431.4z"/>
				</g>
				<g>
					<path class="st3" d="M546.5,435.9c0.4,0.1,0.6,0.3,0.9,0.5c0.2,0.2,0.5,0.5,0.6,0.8c0.1,0.4-0.1,0.9-0.5,1
						c-0.2,0.1-0.3,0.1-0.5,0c-0.4-0.1-0.6-0.3-0.9-0.5c-0.2-0.2-0.5-0.5-0.6-0.8c-0.1-0.4,0.1-0.9,0.5-1
						C546.1,435.9,546.3,435.9,546.5,435.9z"/>
				</g>
				<g>
					<path class="st3" d="M549.9,439.3c0.3,0,0.4,0.2,0.6,0.3c0.1,0.2,0.3,0.3,0.3,0.6c0,0.5-0.3,1-0.8,1c-0.1,0-0.1,0-0.2,0
						c-0.3,0-0.4-0.2-0.6-0.3c-0.1-0.2-0.3-0.3-0.3-0.6c0-0.5,0.3-1,0.8-1C549.8,439.3,549.9,439.3,549.9,439.3z"/>
				</g>
				<g>
					<path class="st3" d="M552.7,442.2c0.3,0,0.4,0.2,0.6,0.3c0.1,0.2,0.3,0.3,0.3,0.6c0,0.5-0.4,0.9-0.9,1c-0.1,0-0.1,0-0.2,0
						c-0.3,0-0.4-0.2-0.6-0.3c-0.1-0.2-0.2-0.3-0.3-0.6c0-0.5,0.3-0.9,0.9-1C552.6,442.2,552.7,442.2,552.7,442.2z"/>
				</g>
			</g>
			<g>
				<g>
					<path class="st3" d="M502.5,416.7c2.5-1.6,5.5-2.2,8.4-2.2c2.9,0.1,5.8,0.9,8.4,1.9c2.6,1.1,5.1,2.5,7.5,4
						c2.4,1.5,4.7,3.2,6.9,4.9c0.3,0.2,0.3,0.7,0.1,1c-0.2,0.3-0.7,0.4-1,0.1c-2.3-1.6-4.6-3.1-6.9-4.6c-2.4-1.4-4.8-2.7-7.3-3.7
						c-2.5-1-5.1-1.8-7.7-1.9c-2.6,0-5.3,0.4-7.6,1.7c-0.3,0.2-0.7,0-1-0.3C502.1,417.3,502.2,416.9,502.5,416.7z"/>
				</g>
				<g>
					<path class="st3" d="M501.7,418.8c-0.1,0.3-0.3,0.4-0.5,0.7c-0.2,0.2-0.4,0.4-0.7,0.4c-0.4,0.1-0.9-0.1-1.1-0.5
						c0-0.1-0.1-0.3,0-0.4c0.1-0.3,0.3-0.6,0.5-0.8c0.2-0.2,0.5-0.4,0.8-0.4c0.5-0.1,0.9,0.2,1,0.7
						C501.7,418.6,501.7,418.7,501.7,418.8z"/>
				</g>
				<g>
					<path class="st3" d="M499.7,421.1c0,0.3-0.1,0.5-0.3,0.8c-0.2,0.2-0.3,0.4-0.6,0.6c-0.4,0.2-0.9,0.1-1.1-0.3
						c-0.1-0.1-0.1-0.3-0.1-0.4c0-0.3,0.1-0.6,0.3-0.9c0.2-0.2,0.4-0.5,0.7-0.6c0.4-0.2,0.9,0,1.1,0.4
						C499.6,420.8,499.7,421,499.7,421.1z"/>
				</g>
				<g>
					<path class="st3" d="M498.2,423.8c-0.1,0.5-0.3,1.1-0.4,1.6l-0.4,1.6c-0.3,1.1-0.5,2.1-0.8,3.2c-0.1,0.4-0.5,0.6-0.9,0.5
						c-0.3-0.1-0.5-0.4-0.5-0.7c0-1.2,0.2-2.3,0.4-3.5l0.5-1.7c0.2-0.6,0.5-1.1,0.8-1.6c0.2-0.4,0.7-0.4,1-0.2
						C498.1,423.2,498.2,423.5,498.2,423.8z"/>
				</g>
				<g>
					<path class="st3" d="M496.3,433c0.2,0.2,0.2,0.3,0.2,0.5c0,0.2,0,0.3-0.2,0.5c-0.4,0.4-1,0.4-1.4,0l0,0
						c-0.2-0.2-0.2-0.4-0.2-0.5c0-0.2,0-0.3,0.2-0.5C495.3,432.6,495.9,432.6,496.3,433L496.3,433z"/>
				</g>
				<g>
					<path class="st3" d="M496.3,436.4c0.2,0.2,0.2,0.3,0.2,0.5c0,0.2,0,0.3-0.2,0.5c-0.4,0.4-1,0.4-1.4,0.1l0,0
						c-0.2-0.2-0.2-0.3-0.2-0.5c0-0.2,0-0.3,0.2-0.5C495.2,436,495.9,436,496.3,436.4L496.3,436.4z"/>
				</g>
			</g>
		</g>
		<g>
			<g>
				<g>
					<path class="st3" d="M1285.2,472.5c0.1,0.4,0,0.7,0,1.1c-0.1,0.3-0.2,0.7-0.4,1c-0.3,0.4-0.8,0.4-1.1,0.1
						c-0.1-0.1-0.2-0.3-0.3-0.5c-0.1-0.4,0-0.7,0-1.1c0.1-0.3,0.2-0.7,0.4-1c0.3-0.4,0.8-0.4,1.1-0.1
						C1285,472.2,1285.1,472.3,1285.2,472.5z"/>
				</g>
				<g>
					<path class="st3" d="M1284.2,476.5c0.1,0.4,0,0.7-0.1,1.1c-0.1,0.3-0.2,0.7-0.5,1c-0.3,0.3-0.8,0.4-1.1,0.1
						c-0.1-0.1-0.2-0.3-0.2-0.5c-0.1-0.4,0-0.7,0.1-1.1c0.1-0.3,0.2-0.7,0.5-1c0.3-0.3,0.8-0.4,1.1-0.1
						C1284.1,476.1,1284.2,476.3,1284.2,476.5z"/>
				</g>
				<g>
					<path class="st3" d="M1283.1,480.4c0.1,0.4,0,0.7-0.1,1.1c-0.1,0.3-0.3,0.7-0.5,1c-0.3,0.3-0.8,0.3-1.1,0
						c-0.1-0.1-0.2-0.3-0.2-0.5c-0.1-0.4,0-0.7,0.1-1.1c0.1-0.3,0.2-0.7,0.5-1c0.3-0.3,0.8-0.4,1.1-0.1
						C1283,480.1,1283.1,480.2,1283.1,480.4z"/>
				</g>
				<g>
					<path class="st3" d="M1280.8,487.3c0,0.4-0.1,0.7-0.2,1.1c-0.1,0.3-0.3,0.7-0.6,0.9c-0.3,0.3-0.8,0.3-1.1,0
						c-0.1-0.1-0.2-0.3-0.2-0.5c0-0.4,0.1-0.7,0.2-1.1c0.1-0.3,0.3-0.7,0.6-0.9c0.3-0.3,0.8-0.3,1.1,0
						C1280.7,486.9,1280.8,487.1,1280.8,487.3z"/>
				</g>
				<g>
					<path class="st3" d="M1279,492.1c0.1,0.3,0,0.5,0,0.7c-0.1,0.2-0.2,0.4-0.4,0.5c-0.5,0.3-1,0.1-1.3-0.4c0-0.1-0.1-0.1-0.1-0.2
						c-0.1-0.3,0-0.5,0.1-0.7c0.1-0.2,0.2-0.4,0.4-0.5c0.5-0.3,1-0.1,1.3,0.4C1279,491.9,1279,492,1279,492.1z"/>
				</g>
				<g>
					<path class="st3" d="M1277.3,496.1c0.1,0.3,0,0.5-0.1,0.7c-0.1,0.2-0.2,0.4-0.4,0.5c-0.5,0.3-1,0.1-1.3-0.4
						c0-0.1,0-0.1-0.1-0.2c-0.1-0.3,0-0.5,0.1-0.7c0.1-0.2,0.2-0.4,0.4-0.5c0.5-0.3,1-0.1,1.3,0.4
						C1277.3,495.9,1277.3,496,1277.3,496.1z"/>
				</g>
			</g>
			<g>
				<g>
					<path class="st3" d="M1264.6,455.6c2.6-1.5,5.3-3,8.3-3.8c2.9-0.8,6.4-1,9.3,0.7c1.5,0.9,2.5,2.3,3.1,3.8
						c0.6,1.5,0.8,3.1,1,4.6c0.2,3.1-0.2,6.1-0.8,9.1c-0.1,0.4-0.5,0.7-0.9,0.6c-0.4-0.1-0.6-0.5-0.6-0.8c0.4-2.9,0.7-5.9,0.5-8.7
						c-0.2-2.8-1-5.7-3.3-7c-2.2-1.4-5.2-1.3-7.9-0.6c-2.8,0.7-5.4,1.9-8,3.3c-0.4,0.2-0.8,0.1-1-0.3
						C1264.2,456.2,1264.3,455.8,1264.6,455.6z"/>
				</g>
				<g>
					<path class="st3" d="M1263.5,457.8c-0.2,0.3-0.4,0.5-0.6,0.6c-0.3,0.1-0.5,0.3-0.9,0.3c-0.5,0-0.9-0.3-0.9-0.8
						c0-0.1,0-0.3,0.1-0.4c0.2-0.3,0.4-0.5,0.7-0.7c0.3-0.1,0.5-0.3,0.9-0.3c0.5,0,0.9,0.3,0.9,0.8
						C1263.6,457.5,1263.6,457.6,1263.5,457.8z"/>
				</g>
				<g>
					<path class="st3" d="M1260.7,459.6c-0.1,0.3-0.4,0.5-0.6,0.7c-0.3,0.1-0.5,0.3-0.8,0.4c-0.5,0.1-0.9-0.3-0.9-0.7
						c0-0.1,0-0.3,0.1-0.4c0.1-0.3,0.4-0.5,0.6-0.7c0.3-0.2,0.5-0.3,0.9-0.4c0.5,0,0.9,0.3,0.9,0.8
						C1260.8,459.3,1260.7,459.5,1260.7,459.6z"/>
				</g>
				<g>
					<path class="st3" d="M1257.9,461.6c-0.9,0.9-1.8,1.6-2.7,2.4c-1,0.7-1.9,1.5-2.9,2.2c-0.3,0.2-0.8,0.1-1-0.2
						c-0.2-0.3-0.1-0.6,0.1-0.9c0.8-0.9,1.7-1.7,2.7-2.5c1-0.8,1.9-1.5,3-2.1c0.4-0.2,0.8-0.1,1,0.3
						C1258.2,461,1258.2,461.4,1257.9,461.6z"/>
				</g>
				<g>
					<path class="st3" d="M1250,468.2c0,0.2-0.1,0.4-0.3,0.5c-0.1,0.1-0.3,0.2-0.5,0.2c-0.6,0-1-0.5-1-1l0,0c0-0.2,0.1-0.4,0.3-0.5
						c0.2-0.1,0.3-0.2,0.5-0.2C1249.6,467.1,1250,467.6,1250,468.2L1250,468.2z"/>
				</g>
				<g>
					<path class="st3" d="M1247.4,470.7c0,0.2-0.1,0.4-0.2,0.5c-0.1,0.1-0.3,0.2-0.5,0.2c-0.6,0-1-0.4-1-1l0,0
						c0-0.2,0.1-0.4,0.2-0.5c0.1-0.1,0.3-0.2,0.5-0.2C1246.9,469.7,1247.4,470.1,1247.4,470.7L1247.4,470.7z"/>
				</g>
			</g>
		</g>
	</g>
	<g>
		<path class="st4" d="M896.3,359.5c-110.8-1.7-407.1,90-443.2,0c-29.8-74.1,81.6-68.5,88.1-129.9c6.5-61.4-22.5-87.5,23.7-116
			c46.2-28.4,121.6,11,171.3-28.4c49.8-39.5,75.7-68.2,187.7-81.9c112-13.6,194.9,112.5,242.8,125.1
			c47.9,12.5,116.6-19.3,150.2,19.3c33.7,38.7-75.1,124.2-51.8,159.9c23.3,35.7,80.4,55,58.3,105
			C1301.4,462.7,1004.2,361.2,896.3,359.5z"/>
		<g>
			<g>
				<g>
					<path class="st3" d="M454.2,325.2c0-0.5,0.1-1,0.3-1.4c0.2-0.4,0.4-0.9,0.7-1.2c0.4-0.4,0.9-0.4,1.2,0c0.1,0.2,0.2,0.4,0.2,0.6
						c0,0.5-0.2,0.9-0.3,1.3c-0.2,0.4-0.3,0.8-0.6,1.2c-0.3,0.4-0.9,0.5-1.2,0.1C454.2,325.6,454.2,325.4,454.2,325.2z"/>
				</g>
				<g>
					<path class="st3" d="M456.2,320.2c0-0.5,0.3-0.9,0.5-1.3c0.2-0.4,0.5-0.8,0.9-1.1c0.5-0.4,1-0.3,1.2,0.1
						c0.1,0.2,0.1,0.4,0.1,0.6c-0.1,0.5-0.3,0.9-0.5,1.3c-0.2,0.4-0.5,0.8-0.8,1.1c-0.4,0.4-0.9,0.4-1.2,0
						C456.2,320.7,456.2,320.5,456.2,320.2z"/>
				</g>
				<g>
					<path class="st3" d="M458.8,315.6c0.1-0.5,0.4-0.9,0.6-1.3c0.3-0.4,0.6-0.7,1-1c0.5-0.3,1-0.2,1.2,0.2c0.1,0.2,0.1,0.4,0,0.6
						c-0.1,0.5-0.4,0.8-0.6,1.2c-0.3,0.4-0.5,0.7-0.9,1c-0.5,0.3-1,0.3-1.2-0.2C458.8,316,458.8,315.8,458.8,315.6z"/>
				</g>
				<g>
					<path class="st3" d="M464.7,308.1c0.2-0.5,0.5-0.8,0.8-1.2c0.3-0.3,0.7-0.6,1.1-0.8c0.5-0.2,1,0,1.1,0.4c0,0.2,0,0.4-0.1,0.6
						c-0.2,0.4-0.5,0.8-0.8,1.1c-0.3,0.3-0.7,0.6-1.1,0.8c-0.5,0.3-1,0.1-1.1-0.4C464.6,308.5,464.6,308.3,464.7,308.1z"/>
				</g>
				<g>
					<path class="st3" d="M469.6,303.5c0.1-0.3,0.3-0.5,0.5-0.7c0.2-0.2,0.5-0.3,0.8-0.4c0.6-0.1,1.1,0.3,1,0.9c0,0.1,0,0.1-0.1,0.2
						c-0.1,0.3-0.3,0.5-0.5,0.7c-0.2,0.2-0.4,0.3-0.8,0.4c-0.6,0.1-1.1-0.3-1-0.9C469.6,303.6,469.6,303.6,469.6,303.5z"/>
				</g>
				<g>
					<path class="st3" d="M474.2,300.1c0.1-0.3,0.4-0.5,0.6-0.6c0.3-0.1,0.5-0.3,0.8-0.3c0.7,0,1,0.5,0.8,1c0,0.1,0,0.1-0.1,0.2
						c-0.1,0.3-0.4,0.4-0.6,0.6c-0.2,0.1-0.5,0.3-0.8,0.3c-0.6,0-1-0.4-0.9-1C474.1,300.2,474.1,300.1,474.2,300.1z"/>
				</g>
			</g>
			<g>
				<g>
					<path class="st3" d="M466.2,372.1c-1.4-1.4-2.5-3.1-3.7-4.6c-1.1-1.7-2.2-3.3-3.1-5c-0.9-1.8-1.8-3.5-2.6-5.3l-2.2-5.5
						c-1.3-3.7-2.1-7.6-2.3-11.6c-0.2-4,0.2-8,1.2-11.8c0.1-0.5,0.6-0.9,1-0.7c0.4,0.1,0.6,0.6,0.4,1.1c-0.9,3.7-1.1,7.5-0.8,11.3
						c0.3,3.8,1.1,7.5,2.3,11.1l2.1,5.4c0.8,1.7,1.7,3.4,2.5,5.2c0.9,1.7,2,3.3,3,4.9c1.2,1.5,2.2,3.1,3.5,4.6
						c0.3,0.4,0.4,0.9,0.1,1.2C467.1,372.6,466.6,372.5,466.2,372.1z"/>
				</g>
				<g>
					<path class="st3" d="M469,373.2c0.4,0.2,0.6,0.5,0.9,0.7c0.3,0.3,0.5,0.5,0.7,0.9c0.2,0.5,0,1-0.5,1.1c-0.2,0-0.3,0-0.5-0.1
						c-0.4-0.1-0.7-0.4-1-0.7c-0.3-0.3-0.5-0.6-0.7-1c-0.2-0.6,0-1,0.5-1.1C468.7,373.1,468.8,373.2,469,373.2z"/>
				</g>
				<g>
					<path class="st3" d="M472.2,376.2c0.4,0.1,0.7,0.4,1,0.6c0.3,0.3,0.6,0.5,0.8,0.9c0.3,0.5,0.1,1-0.4,1.1c-0.2,0-0.3,0-0.5,0
						c-0.4-0.1-0.7-0.3-1.1-0.6c-0.3-0.2-0.6-0.6-0.8-0.9c-0.3-0.5,0-1,0.4-1.1C471.8,376.2,472,376.2,472.2,376.2z"/>
				</g>
				<g>
					<path class="st3" d="M475.6,379c1.4,0.8,2.7,1.6,4,2.3c1.4,0.8,2.7,1.5,4.1,2.3c0.5,0.3,0.7,0.8,0.4,1.1
						c-0.2,0.3-0.6,0.4-1,0.2c-1.6-0.5-3-1.2-4.4-2c-1.4-0.8-2.7-1.7-4-2.8c-0.4-0.4-0.5-0.9-0.2-1.2
						C474.8,378.7,475.3,378.7,475.6,379z"/>
				</g>
				<g>
					<path class="st3" d="M487.4,385.1c0.3-0.1,0.5,0,0.7,0c0.2,0.1,0.4,0.2,0.6,0.4c0.4,0.5,0.2,1.1-0.4,1.4l0,0
						c-0.3,0.1-0.5,0-0.7,0c-0.2-0.1-0.5-0.2-0.6-0.4C486.6,385.9,486.8,385.3,487.4,385.1L487.4,385.1z"/>
				</g>
				<g>
					<path class="st3" d="M491.9,386.2c0.3-0.1,0.5-0.1,0.7-0.1c0.2,0.1,0.4,0.1,0.6,0.3c0.4,0.4,0.4,1.1-0.2,1.4l0,0
						c-0.3,0.1-0.5,0.1-0.8,0.1c-0.2-0.1-0.5-0.1-0.7-0.3C491.2,387.2,491.3,386.5,491.9,386.2L491.9,386.2z"/>
				</g>
			</g>
		</g>
		<path class="st5" d="M900.2,60.9c-51.9,8.4-92.3,32.1-121.1,70.9c-26.9,35.4-21.1,81,1.9,116.4c21.1,33.7,61.5,45.6,100,54
			c107.6,25.3,205.7,57.4,307.5,89.4c44.2,13.5,96.1,33.7,134.5,3.4c0,0,0,0,0.1,0c3.8-3,5.4-7.5,4.5-11.9
			c-6.1-29.9-44.4-47.7-62.5-75.3c-23.3-35.7,85.5-121.2,51.8-159.9c-33.7-38.7-102.3-6.8-150.2-19.3c-5.7-1.5-11.9-4.6-18.5-8.8
			C1062.5,100.6,994.7,46.2,900.2,60.9z"/>
		<path class="st6" d="M1281.8,418.1c-45.3,0-123.1-17.4-198.3-34.2c-74-16.5-143.9-32.2-187.1-32.8c-1.1,0-2.2,0-3.4,0
			c-35.5,0-87.7,8.5-143,17.5c-63.8,10.4-136.1,22.1-192.2,22.1c-55.2,0-86.6-11.1-95.8-34c-14.2-35.3,6.7-47.9,35.7-65.4
			c23.2-14,49.6-29.9,52.9-60.9c2.3-21.9,0.2-39.7-1.4-54c-3.1-26.7-4.7-40,21.1-55.8c11.1-6.8,24.9-9.7,46.1-9.7
			c8.1,0,16.3,0.4,25.1,0.8c8.8,0.4,18,0.9,27,0.9c22.1,0,50.6-2.4,74.1-21c4.6-3.6,9-7.2,13.2-10.6c41-33.2,70.6-57.1,169.4-69.1
			c5.2-0.6,10.4-0.9,15.6-0.9c62.7,0,116.1,45.4,158.9,81.9c25.6,21.8,45.8,39,64.2,43.8c8.9,2.3,19.1,3.5,31.2,3.5
			c11.2,0,22.9-1,34.1-1.9c11.2-0.9,21.7-1.8,31.9-1.8c23.6,0,38,5,48.1,16.6c13.9,16-7.4,48.4-26.2,77.1
			c-20.6,31.3-40,60.9-26.3,81.9c7.9,12.1,19.1,22.2,29.9,32c22.7,20.4,40.7,36.6,27.8,65.8C1312.1,415.1,1300.5,418.1,1281.8,418.1
			z"/>
	</g>
	<g>
		<path class="st7" d="M1214.1,509.6H629c-2.1,0-3.9-1.7-3.9-3.9V186.1c0-2.1,1.7-3.9,3.9-3.9h585.1c2.1,0,3.9,1.7,3.9,3.9v319.7
			C1218,507.9,1216.2,509.6,1214.1,509.6z"/>
		<path class="st8" d="M1203.7,497.3H618.6c-2.1,0-3.9-1.7-3.9-3.9V173.8c0-2.1,1.7-3.9,3.9-3.9h585.1c2.1,0,3.9,1.7,3.9,3.9v319.7
			C1207.6,495.5,1205.9,497.3,1203.7,497.3z"/>
		<g>
			<path class="st9" d="M1195.1,484.9H606.5c-1.2,0-2.1-1-2.1-2.1V159.7c0-1.2,1-2.1,2.1-2.1h588.6c1.2,0,2.1,1,2.1,2.1v323.1
				C1197.2,484,1196.3,484.9,1195.1,484.9z"/>
			<path class="st10" d="M637.4,185.6h37.9v-2.2h-37.9V185.6z M628.5,186.7h4.5v-4.5h-4.5V186.7z M637.4,197.9h37.9v-2.2h-37.9
				V197.9z M628.5,199h4.5v-4.5h-4.5V199z M637.4,210.1h37.9v-2.2h-37.9V210.1z M628.5,211.3h4.5v-4.5h-4.5V211.3z"/>
			<path class="st11" d="M781.8,394.2H643.6c-8.3,0-15.1-6.8-15.1-15.1v-133c0-8.3,6.8-15.1,15.1-15.1h138.2
				c8.3,0,15.1,6.8,15.1,15.1v133C796.9,387.5,790.1,394.2,781.8,394.2z"/>
			<path class="st11" d="M970.9,394.2H832.7c-8.3,0-15.1-6.8-15.1-15.1v-133c0-8.3,6.8-15.1,15.1-15.1h138.2
				c8.3,0,15.1,6.8,15.1,15.1v133C986,387.5,979.2,394.2,970.9,394.2z"/>
			<path class="st11" d="M1160,394.2h-138.2c-8.3,0-15.1-6.8-15.1-15.1v-133c0-8.3,6.8-15.1,15.1-15.1H1160
				c8.3,0,15.1,6.8,15.1,15.1v133C1175.1,387.5,1168.4,394.2,1160,394.2z"/>
			<g>
				<g>
					<g>
						<path class="st7" d="M1133.9,199l-2.8-18.9c-0.1-0.5-0.5-0.9-1-0.9l-5.1,0l0-2.3l5.1,0c1.7,0,3.1,1.2,3.3,2.9l0.3,2.1l32,0.2
							l-3.3,14.9L1133.9,199z M1134.1,184.2l1.8,12.3l24.6-1.8l2.3-10.3L1134.1,184.2z"/>
					</g>
					<g>
						<path class="st7" d="M1162.9,203.4l-27.6-0.2c-0.6,0-1.2-0.3-1.5-0.7c-0.4-0.5-0.5-1-0.5-1.6l0.5-3.4l2.3,0.4l-0.5,3l27.3,0.2
							L1162.9,203.4z"/>
					</g>
					<circle class="st12" cx="1139.1" cy="208" r="3.2"/>
					<circle class="st12" cx="1155.7" cy="208.1" r="3.2"/>
				</g>
			</g>
			<line class="st13" x1="816.8" y1="405.5" x2="986" y2="405.5"/>
		</g>
		<g>
			<ellipse class="st14" cx="905.5" cy="334.6" rx="61.7" ry="4.2"/>
			<g>
				<g>
					<path class="st15" d="M856.4,290.9c0,0,1.2-3.1,12,1c5.9,2.2,13.5,7.6,28.4,1.1c0,0,4.5,15-14.4,13.7
						C863.4,305.4,856.4,290.9,856.4,290.9z"/>
					<path class="st16" d="M961.8,315.1l4.4,1.2c2.5,1.3,2.4,8,0.3,10c0,0-17.7,10.4-69.6,11.2c-29.8-0.6-49.8-5.7-50.7-7.7
						c-0.9-2-1-6.6-0.8-9.8l5.6-6.6L961.8,315.1z"/>
					<path class="st17" d="M856.4,290.9c0,0-5.8,5.6-6.5,10.2c-1,6.6-2.1,9.9-1.4,16.6c0,0,16.8,6.6,44.9,6.9
						c13.8,0.2,33.7-0.7,48.2-3.3c12.4-2.2,24.6-5.2,24.6-5.2c-3.6-12.5-14.4-7.9-29.8-12.7c-10.5-3.3-35.4-23.9-35.4-23.9
						s-5.8,4.3-6.1,6.5c-0.2,1.4,2.6,5,2.6,5s-0.7,11.8-12.5,12.6C873.5,304.5,856.4,290.9,856.4,290.9z"/>
					<path class="st18" d="M966.1,316.3c0,0-9.3,6.3-22.9,8.9c-13.9,2.7-36.6,3.6-50.7,3.1c-15.6-0.6-47.2-8.2-47.2-8.2"/>
					<path class="st19" d="M897.5,291.2c0,0,6,0,8.1,0.8c5,1.7,19.4,13.2,30.2,14.6"/>
					<path class="st16" d="M915.3,290.7l-4.8,7.8c-0.7,0.9-3.5-1.2-2.9-2.1l4.5-8.2C913,287,916.3,289.5,915.3,290.7z"/>
					<path class="st16" d="M922.3,294.9l-5.1,8.2c-0.6,1.4-3.9-0.1-3.2-1.4l5.1-9.3C920,291.1,923.3,293.6,922.3,294.9z"/>
					<path class="st16" d="M929.3,299l-5.1,8.3c-0.5,1.2-3.7-0.3-3.2-1.5l5.1-9.3C927,295.2,930.3,297.7,929.3,299z"/>
					<path class="st16" d="M900.7,295c0.1-2.3,3.8-2.1,3.7,0.2l-1.5,13.8c0,2-2.1,2-2.1,0L900.7,295z"/>
					<path class="st19" d="M887.9,324.8c0,0,1.7-6.2,7.6-8.9c6.6-3.1,22.4,2.8,31.1-2.1c2.6-1.4,9.2-7.3,9.2-7.3"/>
					<path class="st19" d="M851.4,297.5c0,0,9.3,4.2,13.7,9.7c2,2.5,4.7,15.8,4.7,15.8"/>
				</g>
			</g>
		</g>
		<g>
			<ellipse class="st14" cx="711.6" cy="334.6" rx="61.7" ry="4.2"/>
			<g>
				<g>
					<path class="st15" d="M662.5,290.9c0,0,1.2-3.1,12,1c5.9,2.2,13.5,7.6,28.4,1.1c0,0,4.5,15-14.4,13.7
						C669.5,305.4,662.5,290.9,662.5,290.9z"/>
					<path class="st16" d="M767.9,315.1l4.4,1.2c2.5,1.3,2.4,8,0.3,10c0,0-17.7,10.4-69.6,11.2c-29.8-0.6-49.8-5.7-50.7-7.7
						c-0.9-2-1-6.6-0.8-9.8l5.6-6.6L767.9,315.1z"/>
					<path class="st4" d="M662.5,290.9c0,0-5.8,5.6-6.5,10.2c-1,6.6-2.1,9.9-1.4,16.6c0,0,16.8,6.6,44.9,6.9
						c13.8,0.2,33.7-0.7,48.2-3.3c12.4-2.2,24.6-5.2,24.6-5.2c-3.6-12.5-14.4-7.9-29.8-12.7c-10.5-3.3-35.4-23.9-35.4-23.9
						s-5.8,4.3-6.1,6.5c-0.2,1.4,2.6,5,2.6,5s-0.7,11.8-12.5,12.6C679.6,304.5,662.5,290.9,662.5,290.9z"/>
					<path class="st18" d="M772.2,316.3c0,0-9.3,6.3-22.9,8.9c-13.9,2.7-36.6,3.6-50.7,3.1c-15.6-0.6-47.2-8.2-47.2-8.2"/>
					<path class="st20" d="M703.6,291.2c0,0,6,0,8.1,0.8c5,1.7,19.4,13.2,30.2,14.6"/>
					<path class="st16" d="M721.4,290.7l-4.8,7.8c-0.7,0.9-3.5-1.2-2.9-2.1l4.5-8.2C719.1,287,722.4,289.5,721.4,290.7z"/>
					<path class="st16" d="M728.4,294.9l-5.1,8.2c-0.6,1.4-3.9-0.1-3.2-1.4l5.1-9.3C726.1,291.1,729.4,293.6,728.4,294.9z"/>
					<path class="st16" d="M735.4,299l-5.1,8.3c-0.5,1.2-3.7-0.3-3.2-1.5l5.1-9.3C733.1,295.2,736.4,297.7,735.4,299z"/>
					<path class="st16" d="M706.8,295c0.1-2.3,3.8-2.1,3.7,0.2L709,309c0,2-2.1,2-2.1,0L706.8,295z"/>
					<path class="st20" d="M694,324.8c0,0,1.7-6.2,7.6-8.9c6.6-3.1,22.4,2.8,31.1-2.1c2.6-1.4,9.2-7.3,9.2-7.3"/>
					<path class="st20" d="M657.5,297.5c0,0,9.3,4.2,13.7,9.7c2,2.5,4.7,15.8,4.7,15.8"/>
				</g>
			</g>
		</g>
		<g>
			<ellipse class="st14" cx="1090.6" cy="334.6" rx="61.7" ry="4.2"/>
			<g>
				<g>
					<path class="st21" d="M1041.4,290.9c0,0,1.2-3.1,12,1c5.9,2.2,13.5,7.6,28.4,1.1c0,0,4.5,15-14.4,13.7
						C1048.5,305.4,1041.4,290.9,1041.4,290.9z"/>
					<path class="st16" d="M1146.8,315.1l4.4,1.2c2.5,1.3,2.4,8,0.3,10c0,0-17.7,10.4-69.6,11.2c-29.8-0.6-49.8-5.7-50.7-7.7
						c-0.9-2-1-6.6-0.8-9.8l5.6-6.6L1146.8,315.1z"/>
					<path class="st0" d="M1041.4,290.9c0,0-5.8,5.6-6.5,10.2c-1,6.6-2.1,9.9-1.4,16.6c0,0,16.8,6.6,44.9,6.9
						c13.8,0.2,33.7-0.7,48.2-3.3c12.4-2.2,24.6-5.2,24.6-5.2c-3.6-12.5-14.4-7.9-29.8-12.7c-10.5-3.3-35.4-23.9-35.4-23.9
						s-5.8,4.3-6.1,6.5c-0.2,1.4,2.6,5,2.6,5s-0.7,11.8-12.5,12.6C1058.5,304.5,1041.4,290.9,1041.4,290.9z"/>
					<path class="st18" d="M1151.2,316.3c0,0-9.3,6.3-22.9,8.9c-13.9,2.7-36.6,3.6-50.7,3.1c-15.6-0.6-47.2-8.2-47.2-8.2"/>
					<path class="st20" d="M1082.5,291.2c0,0,6,0,8.1,0.8c5,1.7,19.4,13.2,30.2,14.6"/>
					<path class="st16" d="M1100.3,290.7l-4.8,7.8c-0.7,0.9-3.5-1.2-2.9-2.1l4.5-8.2C1098.1,287,1101.3,289.5,1100.3,290.7z"/>
					<path class="st16" d="M1107.3,294.9l-5.1,8.2c-0.6,1.4-3.9-0.1-3.2-1.4l5.1-9.3C1105.1,291.1,1108.3,293.6,1107.3,294.9z"/>
					<path class="st16" d="M1114.3,299l-5.1,8.3c-0.5,1.2-3.7-0.3-3.2-1.5l5.1-9.3C1112.1,295.2,1115.3,297.7,1114.3,299z"/>
					<path class="st16" d="M1085.7,295c0.1-2.3,3.8-2.1,3.7,0.2l-1.5,13.8c0,2-2.1,2-2.1,0L1085.7,295z"/>
					<path class="st20" d="M1072.9,324.8c0,0,1.7-6.2,7.6-8.9c6.6-3.1,22.4,2.8,31.1-2.1c2.6-1.4,9.2-7.3,9.2-7.3"/>
					<path class="st20" d="M1036.4,297.5c0,0,9.3,4.2,13.7,9.7c2,2.5,4.7,15.8,4.7,15.8"/>
				</g>
			</g>
		</g>
		<g>
			<path class="st7" d="M835.8,261v0.2c0,1-0.2,1.4-0.8,1.4h-5.4c-0.6,0-0.8-0.4-0.8-1.4V261c0-1,0.2-1.4,0.8-1.4h5.4
				C835.6,259.7,835.8,260.1,835.8,261z"/>
			<path class="st7" d="M848.3,253.6c0,3.8-2.1,4.6-3.9,4.6s-3.9-0.8-3.9-4.6c0-3.8,2.1-4.6,3.9-4.6S848.3,249.8,848.3,253.6z
				 M843.1,253.6c0,1.1,0.2,2.4,1.3,2.4c1,0,1.2-1.3,1.2-2.4c0-1.1-0.2-2.2-1.2-2.2C843.3,251.4,843.1,252.5,843.1,253.6z
				 M855.6,249.6c0,0.1-0.1,0.2-0.1,0.4l-9.4,17.7c-0.3,0.5-0.6,0.8-1.2,0.8h-1.2c-0.4,0-0.6-0.2-0.6-0.4c0-0.1,0.1-0.2,0.1-0.4
				l9.4-17.7c0.3-0.5,0.6-0.8,1.2-0.8h1.2C855.4,249.2,855.6,249.3,855.6,249.6z M858.4,264c0,3.8-2.1,4.6-3.9,4.6
				c-1.8,0-3.9-0.8-3.9-4.6c0-3.8,2.1-4.6,3.9-4.6C856.3,259.4,858.4,260.2,858.4,264z M853.2,264c0,1.1,0.2,2.4,1.3,2.4
				c1,0,1.2-1.3,1.2-2.4c0-1.1-0.2-2.2-1.2-2.2C853.5,261.8,853.2,262.9,853.2,264z"/>
		</g>
		<g>
			<g>
				<path class="st17" d="M948.1,350.5v1.8c2.6,0,7.1,1.1,7.1,2.6c0,0.7-1,2.4-1.4,2.4c-0.7,0-2.3-1.6-5.7-1.7v10.5
					c4,1.4,8.6,3.1,8.6,9.3c0,5.1-3.3,8.4-8.6,8.8v2.3c0,0.5-0.3,0.7-0.9,0.7c-0.6,0-0.9-0.2-0.9-0.7v-2.2c-5.1-0.1-8.9-2.1-8.9-3.3
					c0-0.7,1.1-2.4,1.6-2.4c0.5,0,3,2.3,7.4,2.5v-11.6c-4-1.5-8.4-3.1-8.4-8.9c0-4.4,3.2-7.5,8.4-8v-1.9c0-0.5,0.3-0.7,0.9-0.7
					C947.8,349.8,948.1,350,948.1,350.5z M942.1,360.6c0,2.6,1.9,3.8,4.2,4.8v-9.7C943.7,356.1,942.1,357.8,942.1,360.6z
					 M948.1,380.9c2.7-0.5,4.5-2.6,4.5-5.5c0-2.8-2-4.2-4.5-5.3V380.9z"/>
			</g>
			<path class="st17" d="M931.1,385.7h-78.9c-2.2,0-3.9-1.8-3.9-3.9V374c0-2.2,1.8-3.9,3.9-3.9h78.9c2.2,0,3.9,1.8,3.9,3.9v7.8
				C935.1,384,933.3,385.7,931.1,385.7z"/>
		</g>
	</g>
	<g>
		<path class="st22" d="M1455,725.1H359.9c-4.1,0-5.9-5.1-2.7-7.7l164-131c3.5-2.8,8-4.4,12.6-4.4h747.2c4.6,0,9.1,1.5,12.6,4.4
			l164,131C1460.9,719.9,1459.1,725.1,1455,725.1z"/>
		<g>
			<path class="st23" d="M1450.8,671.5H364.1l168.5-134.6c3.4-2.7,7.8-4.2,12.3-4.2h725.1c4.5,0,8.8,1.5,12.3,4.2L1450.8,671.5z"/>
			<polygon class="st8" points="1343.1,659.5 471.9,659.5 594.5,544.7 1220.4,544.7 			"/>
			<polygon class="st3" points="1332.4,659.5 482.5,659.5 602.2,549.7 1212.8,549.7 			"/>
			<path class="st8" d="M1436.5,707.6h-1058c-7.9,0-14.3-6.4-14.3-14.3v-21.8h1086.7v21.8C1450.8,701.2,1444.4,707.6,1436.5,707.6z"
				/>
			<line class="st24" x1="364.1" y1="685.6" x2="1450.8" y2="685.6"/>
			<path class="st7" d="M733.4,696.1H576.6c-2.6,0-4.8-2.1-4.8-4.8v-9.4c0-2.6,2.1-4.8,4.8-4.8h156.8c2.6,0,4.8,2.1,4.8,4.8v9.4
				C738.1,694,736,696.1,733.4,696.1z"/>
			<path class="st23" d="M733.9,696.1H576.1c-2.3,0-4.2-1.9-4.2-4.2v-8.4c0-2.3,1.9-4.2,4.2-4.2h157.8c2.3,0,4.2,1.9,4.2,4.2v8.4
				C738.1,694.2,736.2,696.1,733.9,696.1z"/>
			<g>
				<polygon class="st8" points="1262.7,565.8 1324.5,620.4 1357.5,620.4 1357.5,616.1 1262.7,561.5 				"/>
				<polygon class="st25" points="1262.7,561.5 1324.5,616.1 1357.5,616.1 1288.9,561.5 				"/>
			</g>
			<ellipse class="st3" cx="508.5" cy="587.5" rx="26" ry="11.3"/>
			<ellipse class="st7" cx="508.5" cy="586.7" rx="18.2" ry="7.1"/>
			<ellipse class="st3" cx="504.4" cy="585.1" rx="6.3" ry="2.4"/>
		</g>
	</g>
	<g>
		<g>
			<g>
				<g>
					<path class="st23" d="M1247,128.9H625.7c-7.4,0-13.4-6-13.4-13.4V89.1c0-7.4,6-13.4,13.4-13.4H1247c7.4,0,13.4,6,13.4,13.4
						v26.4C1260.4,122.9,1254.4,128.9,1247,128.9z"/>
					<circle class="st23" cx="514.9" cy="102.3" r="26.6"/>
					<circle class="st23" cx="576.9" cy="102.3" r="26.6"/>
				</g>
			</g>
			<polygon class="st23" points="1297.3,74.4 1306.1,93.2 1326.6,95.7 1311.5,109.9 1315.4,130.3 1297.3,120.2 1279.1,130.3 
				1283,109.9 1267.9,95.7 1288.5,93.2 			"/>
			<g>
				<g>
					<path class="st9" d="M1247,119.7H625.7c-7.4,0-13.4-6-13.4-13.4V79.9c0-7.4,6-13.4,13.4-13.4H1247c7.4,0,13.4,6,13.4,13.4v26.4
						C1260.4,113.7,1254.4,119.7,1247,119.7z"/>
					<g>
						<path class="st26" d="M768.7,83.3v1c2.4,0.1,4.6,1,4.6,1.9c0,0.7-0.8,2.2-1.3,2.2c-0.4,0-1.3-0.8-3.3-0.9v5.3
							c2.5,1,5.5,2.2,5.5,6c0,3.9-2.5,5.8-5.5,6.2v1.3c0,0.5-0.2,0.7-0.7,0.7c-0.6,0-0.8-0.2-0.8-0.7V105c-3.7-0.1-6-1.5-6-2.4
							c0-0.8,1-2.2,1.5-2.2c0.5,0,2.1,1.4,4.5,1.5v-5.8c-2.6-1-5.6-2.1-5.6-6.1c0-3.5,2.5-5.3,5.6-5.6v-1c0-0.5,0.2-0.7,0.7-0.7
							C768.5,82.6,768.7,82.8,768.7,83.3z M765.3,89.8c0,1.1,0.8,1.8,1.9,2.4v-4.5C765.9,88,765.3,88.8,765.3,89.8z M768.7,101.6
							c1.1-0.3,1.9-1.2,1.9-2.4c0-1.2-0.8-1.9-1.9-2.4V101.6z"/>
						<path class="st26" d="M783.2,97v0.2c0,0.9-0.2,1.2-0.8,1.2h-5.8c-0.5,0-0.8-0.3-0.8-1.2V97c0-0.9,0.2-1.2,0.8-1.2h5.8
							C782.9,95.8,783.2,96.1,783.2,97z"/>
						<path class="st26" d="M794.1,89.1c0,4-2.3,4.8-4.2,4.8c-1.9,0-4.2-0.8-4.2-4.8c0-4,2.2-4.8,4.2-4.8
							C791.8,84.3,794.1,85.1,794.1,89.1z M788.2,89.1c0,1.2,0.2,2.7,1.6,2.7c1.4,0,1.7-1.5,1.7-2.7c0-1.2-0.2-2.7-1.7-2.7
							C788.5,86.4,788.2,87.9,788.2,89.1z M802.1,84.7c0,0.1-0.1,0.2-0.1,0.3l-10.5,19.1c-0.2,0.5-0.6,0.7-1.2,0.7h-0.9
							c-0.4,0-0.6-0.1-0.6-0.3c0-0.1,0.1-0.2,0.1-0.4l10.5-19.1c0.3-0.5,0.7-0.7,1.2-0.7h0.9C801.9,84.4,802.1,84.5,802.1,84.7z
							 M805.2,100.2c0,4-2.3,4.8-4.2,4.8c-1.9,0-4.2-0.8-4.2-4.8c0-4,2.2-4.8,4.2-4.8C802.9,95.4,805.2,96.2,805.2,100.2z
							 M799.3,100.2c0,1.2,0.2,2.7,1.6,2.7c1.4,0,1.7-1.5,1.7-2.7c0-1.2-0.2-2.7-1.7-2.7C799.5,97.5,799.3,99,799.3,100.2z"/>
					</g>
					<path class="st26" d="M742.6,107h-52.2c-6.7,0-12.2-5.5-12.2-12.2l0,0c0-6.7,5.5-12.2,12.2-12.2h52.2c6.7,0,12.2,5.5,12.2,12.2
						l0,0C754.8,101.6,749.3,107,742.6,107z"/>
					<circle class="st9" cx="514.9" cy="93.1" r="26.6"/>
					<circle class="st9" cx="576.9" cy="93.1" r="26.6"/>
				</g>
			</g>
			<polygon class="st27" points="1297.3,65.2 1306.1,84 1326.6,86.5 1311.5,100.7 1315.4,121.1 1297.3,111 1279.1,121.1 1283,100.7 
				1267.9,86.5 1288.5,84 			"/>
		</g>
		<polygon class="st7" points="518.2,76.9 501.4,93.6 518.2,110.6 521.4,107.4 507.8,93.6 521.4,80.1 		"/>
		<polygon class="st7" points="574.5,110.6 591.3,93.9 574.5,76.9 571.3,80.1 584.9,93.9 571.3,107.4 		"/>
		<path class="st7" d="M666.9,108.4l-10.7-10.6c1.5-2.2,2.3-4.9,2.3-7.6c0-7.6-6.3-13.8-14-13.9c-3.6,0-7.3,1.4-9.9,4
			c-2.6,2.6-4.1,6.1-4.1,9.8c0,7.6,6.3,13.8,14,13.9c0,0,0,0,0.1,0c2.7,0,5.4-0.8,7.7-2.3l10.7,10.6L666.9,108.4z M654.3,90.2
			c0,2.5-1,5-2.8,6.8c-1.8,1.8-4.3,2.8-6.9,2.8c0,0,0,0,0,0c-5.4,0-9.8-4.4-9.8-9.7c0-2.5,1-5,2.8-6.8c1.8-1.8,4.3-2.8,6.9-2.8
			C649.9,80.5,654.3,84.9,654.3,90.2z"/>
		<path class="st28" d="M1224.4,93.8l-6,6.1c-0.7,0.7-0.7,1.9,0,2.6c0.7,0.7,1.9,0.7,2.6,0l6-6.1l6,6.1c0.7,0.7,1.9,0.7,2.6,0
			c0.7-0.7,0.7-1.9,0-2.6l-6-6.1l6-6.1c0.7-0.7,0.7-1.9,0-2.6c-0.7-0.7-1.9-0.7-2.6,0l-6,6.1l-6-6.1c-0.7-0.7-1.9-0.7-2.6,0
			c-0.7,0.7-0.7,1.9,0,2.6L1224.4,93.8z M1227,113.4c-10.8,0-19.5-8.8-19.5-19.6c0-10.8,8.7-19.6,19.5-19.6
			c10.8,0,19.5,8.8,19.5,19.6C1246.5,104.6,1237.7,113.4,1227,113.4z"/>
	</g>
	<g>
		<path class="st17" d="M554,216.9c0-19.9-16.1-36-36-36c-19.9,0-36,16.1-36,36c0,0,0,0,0,0c0,8.3-2.5,13.7,36,82.7
			C556.7,230.2,554,221.1,554,216.9z"/>
		<circle class="st3" cx="518.1" cy="217.7" r="15.9"/>
	</g>
	<path class="st29" d="M1014.9,375.7"/>
	<g>
		<g>
			<g>
				<path class="st22" d="M806.8,586l-14.6,25.3c-3,5.1,1.1,11.3,7.4,11.3h143.5c5.7,0,9.7-5.1,8-10.1l-9.1-25.3
					c-1.1-3.2-4.3-5.3-8-5.3H814.2C811.1,581.9,808.3,583.5,806.8,586z"/>
				<g>
					<g>
						<circle class="st7" cx="823.4" cy="578.9" r="12.7"/>
						<circle class="st30" cx="823.4" cy="578.9" r="7.7"/>
						<path class="st31" d="M818.4,577.6l4.4-11.5c0.2-0.6,0.8-1,1.5-1h15.2c1.4,0,2.1,1.7,1.2,2.7l-13.7,14.8
							c-1.1,1.2-2.9,1.7-4.5,1.2l-1.4-0.4C818.8,582.4,817.5,579.8,818.4,577.6z"/>
						<circle class="st7" cx="823.4" cy="578.9" r="2.9"/>
					</g>
					<g>
						<circle class="st7" cx="922.8" cy="578.9" r="12.7"/>
						<circle class="st30" cx="922.8" cy="578.9" r="7.7"/>
						<path class="st31" d="M927.8,577.6l-4.4-11.5c-0.2-0.6-0.8-1-1.5-1h-15.2c-1.4,0-2.1,1.7-1.2,2.7l13.7,14.8
							c1.1,1.2,2.9,1.7,4.5,1.2l1.4-0.4C927.5,582.4,928.7,579.8,927.8,577.6z"/>
						<circle class="st7" cx="922.8" cy="578.9" r="2.9"/>
					</g>
					<g>
						<path class="st17" d="M790.1,460.5c-0.7,0-1.4-0.4-1.7-1.1c-4.3-10-11.5-26.3-12.8-28.3c-1.9-1.4-16.5-6.6-29.7-10.9
							c-0.8-0.3-1.3-1-1.3-1.8c0-0.8,0.5-1.5,1.3-1.8l23.4-7.6c0.4-0.1,0.7-0.1,1.1,0c2.2,0.6,22,6.1,26.3,10
							c3.4,3.1,13.3,23.9,15.3,28c0.4,0.9,0,2.1-0.9,2.5c-0.9,0.4-2.1,0-2.5-0.9c-4.4-9.3-12.3-24.9-14.5-26.9
							c-2.6-2.4-16-6.8-24.1-9l-17.4,5.6c12.1,4,24.6,8.5,25.9,10.3c1.6,2.1,11.4,24.7,13.3,29.2c0.4,1,0,2.1-1,2.5
							C790.6,460.5,790.3,460.5,790.1,460.5z"/>
					</g>
					<polygon class="st32" points="785,450.9 806.3,437.7 970.7,445.7 974.5,456.1 					"/>
					<path class="st17" d="M783.4,451.3l24.9,82.1c0.7,2.5,3,4.1,5.6,4l137.6-4.3c2.6-0.1,4.7-1.9,5.3-4.3l17.6-72.7L783.4,451.3z"
						/>
					<path class="st33" d="M820.4,485.6c8.9,18.5,28.6,22.2,47.3,21.3c40.2-2,75.3-17.7,98.9-51c0,0-146.3-3.7-146.4-3.7
						c-2.2,0-3.2,14-3.3,15.8C816.5,474.1,817.8,480.2,820.4,485.6z"/>
					<path class="st17" d="M951.2,578.6c-1.7-6.7-5.1-13.4-7.6-16.8c-1.3-1.8-3.4-3.8-8.4-3.8h-114c-1.8,0-5-0.3-6.4-2.3
						c-1.3-1.9-0.5-4.8,0.3-7c3.4-8.6,6.4-14.1,6.4-14.1L817,535c-0.1,0.2-2,3.5-5.5,12.4c-1.7,4.4-1.7,7.9,0.1,10.5
						c1.8,2.6,5,3.9,9.5,3.9h6.1v2.6c0,1.6,1.3,2.9,2.9,2.9h2.2c1.6,0,2.9-1.3,2.9-2.9v-2.6h75.3v2.6c0,1.6,1.3,2.9,2.9,2.9h2.2
						c1.6,0,2.9-1.3,2.9-2.9v-2.6h16.7c3.4,0,4.6,1.2,5.4,2.3c2.4,3.2,5.5,9.6,7,15.5c0.3,1.3,0.2,2.4-0.3,3c-1,1.4-3.6,1.5-4.4,1.5
						c-26.4,0.6-83.3,0.3-113.9,0.1c-9.1-0.1-16-0.1-19.3-0.1c-4.6,0-8.1-1.3-9.7-3.7c-1.6-2.3-1.5-5.7,0.1-9.9
						c3.6-9.1,14.3-36.1,14.3-36.1l-3.5-1.4c0,0-10.7,27-14.3,36.1c-2.7,6.7-1.4,11,0.2,13.4c2.4,3.5,6.9,5.4,12.9,5.4
						c2.2,0,5.9,0,10.7,0v2.5c0,1.6,1.3,2.9,2.9,2.9h2.2c1.6,0,2.9-1.3,2.9-2.9v-1.9c0.2-0.2,0.3-0.3,0.6-0.6
						c17.4,0.1,43.4,0.2,67.5,0.2c6.5,0,12.9,0,18.9,0v2.2c0,1.6,1.3,2.9,2.9,2.9h2.2c1.6,0,2.9-1.3,2.9-2.9v-2.3
						c7.5-0.1,14.3-0.1,19.8-0.3c1.9,0,5.4-0.5,7.3-3C951.5,583.2,951.8,581.1,951.2,578.6z"/>
					<g>
						<path class="st3" d="M968.9,454.5l-17.1,70.3c-0.5,1.9-2.2,3.3-4.2,3.4l-64.3,2c5-5.4,9.9-10.8,14.8-16.3
							c0.4-0.4,0.5-0.9,0.3-1.1c-0.2-0.2-0.7-0.1-1.1,0.3c-5.3,5.5-10.5,11-15.7,16.5l0,0c-0.2,0.2-0.3,0.4-0.4,0.6l-56.7,1.8
							c5.3-5.7,10.5-11.5,15.8-17.3c0.4-0.4,0.5-0.9,0.3-1.2c-0.2-0.2-0.8-0.1-1.2,0.3c-5.5,5.7-11,11.5-16.5,17.3l0,0
							c-0.2,0.3-0.4,0.6-0.5,0.8l-5.1,0.2c-2,0.1-3.8-1.2-4.4-3.2l-11.3-37.3c2.9-3.2,5.8-6.4,8.7-9.6c0.2-0.2,0.2-0.6,0-0.8
							c-0.2-0.2-0.6-0.2-0.9,0c-2.8,2.8-5.6,5.7-8.3,8.6l-12.2-40.1l-1.8,0.5l24.1,79.3c0.8,2.7,3.3,4.5,6.1,4.5c0.1,0,0.1,0,0.2,0
							l130.4-4c2.8-0.1,5.3-2.1,6-4.8l17.1-70.3L968.9,454.5z"/>
						<path class="st3" d="M811.7,480.6c0.5-0.3,0.9-0.7,1.3-1.1c0.4-0.4,0.8-0.9,1-1.4c0.1-0.2,0.1-0.5,0-0.7
							c-0.2-0.3-0.6-0.4-0.9-0.2c-0.5,0.3-0.9,0.7-1.3,1.1c-0.4,0.4-0.8,0.9-1,1.4c-0.1,0.2-0.1,0.5,0,0.7
							C811,480.7,811.4,480.8,811.7,480.6z"/>
						<path class="st3" d="M815.2,476.8c0.2,0,0.3-0.1,0.5-0.2c0.1-0.1,0.2-0.3,0.2-0.5c0,0,0,0,0,0c0-0.5-0.5-0.9-1-0.9
							c-0.2,0-0.3,0.1-0.5,0.2c-0.1,0.1-0.2,0.3-0.2,0.5c0,0,0,0,0,0C814.3,476.5,814.7,476.8,815.2,476.8z"/>
						<path class="st3" d="M830.9,459.9c3.8-3.9,7.6-7.8,11.4-11.8l0,0c0.3-0.3,0.3-0.9-0.1-1.2c-0.3-0.3-0.9-0.3-1.2,0
							c-3.7,4-7.4,8.1-11,12.2c-0.2,0.2-0.2,0.6,0,0.8C830.3,460.2,830.7,460.2,830.9,459.9z"/>
						<path class="st3" d="M829,462.1c0.2,0,0.3-0.1,0.5-0.2c0.1-0.1,0.2-0.3,0.2-0.5c0,0,0,0,0,0c0-0.5-0.5-0.9-1-0.9
							c-0.2,0-0.3,0.1-0.5,0.2c-0.1,0.1-0.2,0.3-0.2,0.5c0,0,0,0,0,0C828,461.8,828.4,462.2,829,462.1z"/>
						<path class="st3" d="M826.9,464.4c0.2,0,0.3-0.1,0.5-0.2c0.1-0.1,0.2-0.3,0.2-0.5c0,0,0,0,0,0c0-0.5-0.5-0.9-1-0.9
							c-0.2,0-0.3,0.1-0.5,0.2c-0.1,0.1-0.2,0.3-0.2,0.5c0,0,0,0,0,0C825.9,464,826.4,464.4,826.9,464.4z"/>
						<path class="st3" d="M824.8,466.6c0.2,0,0.3-0.1,0.5-0.2c0.1-0.1,0.2-0.3,0.2-0.5c0,0,0,0,0,0c0-0.5-0.5-0.9-1-0.9
							c-0.2,0-0.3,0.1-0.5,0.2c-0.1,0.1-0.2,0.3-0.2,0.5c0,0,0,0,0,0C823.8,466.2,824.3,466.6,824.8,466.6z"/>
						<path class="st3" d="M817.6,474.3c1-0.8,1.9-1.8,2.8-2.7c0.9-1,1.7-1.9,2.5-2.9c0.2-0.2,0.2-0.6,0-0.8
							c-0.2-0.3-0.7-0.3-0.9-0.1c-1,0.8-1.9,1.8-2.8,2.7c-0.9,1-1.7,1.9-2.5,2.9c-0.2,0.2-0.2,0.6,0,0.8
							C816.9,474.5,817.3,474.5,817.6,474.3z"/>
						<path class="st3" d="M841.7,512c0.2,0.4,0.7,0.4,1.2-0.1c0.8-0.7,1.6-1.4,2.3-2.2c0.7-0.8,1.4-1.6,2-2.4
							c0.2-0.3,0.3-0.7,0.2-1c-0.2-0.4-0.7-0.4-1.2,0.1c-0.8,0.7-1.6,1.4-2.3,2.2c-0.7,0.8-1.4,1.6-2,2.4
							C841.8,511.4,841.6,511.8,841.7,512z"/>
						<path class="st3" d="M849.3,505.1c0.3-0.1,0.5-0.3,0.7-0.5c0.2-0.2,0.4-0.4,0.4-0.8c0,0,0,0,0,0c0.2-0.7-0.3-1.1-1-0.9
							c-0.3,0.1-0.5,0.3-0.7,0.5c-0.2,0.2-0.4,0.4-0.4,0.8c0,0,0,0,0,0C848.2,505,848.6,505.4,849.3,505.1z"/>
						<path class="st3" d="M877.8,474.6c6.9-7.1,13.7-14.3,20.5-21.6l0,0c0.6-0.6,0.8-1.4,0.4-1.7s-1.1-0.1-1.7,0.5
							c-6.7,7.3-13.4,14.6-20.1,21.9c-0.4,0.4-0.5,0.9-0.3,1.2C876.9,475.2,877.4,475,877.8,474.6z"/>
						<path class="st3" d="M874.2,478.5c0.3-0.1,0.5-0.3,0.7-0.5c0.2-0.2,0.4-0.4,0.4-0.8c0,0,0,0,0,0c0.2-0.7-0.3-1.1-1-0.9
							c-0.3,0.1-0.5,0.3-0.7,0.5c-0.2,0.2-0.4,0.4-0.4,0.8c0,0,0,0,0,0C873,478.4,873.5,478.8,874.2,478.5z"/>
						<path class="st3" d="M870.4,482.6c0.3-0.1,0.5-0.3,0.7-0.5c0.2-0.2,0.4-0.4,0.4-0.8c0,0,0,0,0,0c0.2-0.7-0.3-1.1-1-0.9
							c-0.3,0.1-0.5,0.3-0.7,0.5c-0.2,0.2-0.4,0.4-0.4,0.8c0,0,0,0,0,0C869.2,482.4,869.7,482.8,870.4,482.6z"/>
						<path class="st3" d="M866.6,486.6c0.3-0.1,0.5-0.3,0.7-0.5c0.2-0.2,0.4-0.4,0.4-0.8c0,0,0,0,0,0c0.2-0.7-0.3-1.1-1-0.9
							c-0.3,0.1-0.5,0.3-0.7,0.5c-0.2,0.2-0.4,0.4-0.4,0.8c0,0,0,0,0,0C865.5,486.5,865.9,486.9,866.6,486.6z"/>
						<path class="st3" d="M853.6,500.6c1.7-1.6,3.3-3.3,4.9-5c1.6-1.7,3.1-3.4,4.6-5.2c0.3-0.4,0.5-0.9,0.3-1.2
							c-0.2-0.3-0.8-0.2-1.3,0.3c-1.7,1.6-3.3,3.3-4.9,5c-1.6,1.7-3.1,3.4-4.6,5.2c-0.3,0.4-0.5,0.9-0.3,1.2
							C852.6,501.1,853.2,501,853.6,500.6z"/>
						<path class="st3" d="M900.9,511.3c0.8-0.6,1.5-1.4,2.2-2.1c0.7-0.7,1.3-1.5,1.9-2.3c0.2-0.3,0.3-0.7,0.2-0.9
							c-0.2-0.4-0.7-0.4-1.2,0c-0.8,0.6-1.5,1.4-2.2,2.1c-0.7,0.7-1.3,1.5-1.9,2.3c-0.2,0.3-0.3,0.7-0.2,0.9
							C899.8,511.7,900.4,511.6,900.9,511.3z"/>
						<path class="st3" d="M906.9,504.8c0.3-0.1,0.5-0.3,0.7-0.5c0.2-0.2,0.3-0.4,0.4-0.7c0,0,0,0,0,0c0.2-0.7-0.3-1.1-1-0.9
							c-0.3,0.1-0.5,0.3-0.7,0.5c-0.2,0.2-0.3,0.4-0.4,0.7c0,0,0,0,0,0C905.8,504.6,906.2,505,906.9,504.8z"/>
						<path class="st3" d="M934.1,475.6c6.6-6.8,13.1-13.7,19.5-20.6l0,0c0.5-0.6,0.7-1.3,0.4-1.7c-0.3-0.3-1.1-0.1-1.6,0.5
							c-6.4,6.9-12.8,13.9-19.2,20.9c-0.4,0.4-0.5,0.9-0.3,1.1C933.2,476.1,933.7,476,934.1,475.6z"/>
						<path class="st3" d="M930.7,479.3c0.3-0.1,0.5-0.3,0.7-0.5c0.2-0.2,0.3-0.4,0.4-0.7c0,0,0,0,0,0c0.1-0.7-0.3-1.1-1-0.9
							c-0.3,0.1-0.5,0.3-0.7,0.5c-0.2,0.2-0.3,0.4-0.4,0.7c0,0,0,0,0,0C929.5,479.2,930,479.6,930.7,479.3z"/>
						<path class="st3" d="M927.1,483.2c0.3-0.1,0.5-0.3,0.7-0.5c0.2-0.2,0.3-0.4,0.4-0.7c0,0,0,0,0,0c0.1-0.7-0.3-1.1-1-0.9
							c-0.3,0.1-0.5,0.3-0.7,0.5c-0.2,0.2-0.3,0.4-0.4,0.7c0,0,0,0,0,0C925.9,483,926.4,483.4,927.1,483.2z"/>
						<path class="st3" d="M923.4,487.1c0.3-0.1,0.5-0.3,0.7-0.5c0.2-0.2,0.3-0.4,0.4-0.7c0,0,0,0,0,0c0.1-0.7-0.3-1.1-1-0.9
							c-0.3,0.1-0.5,0.3-0.7,0.5c-0.2,0.2-0.3,0.4-0.4,0.7c0,0,0,0,0,0C922.3,486.9,922.8,487.3,923.4,487.1z"/>
						<path class="st3" d="M911.1,500.4c1.6-1.5,3.1-3.1,4.7-4.7c1.5-1.6,3-3.3,4.4-5c0.3-0.4,0.4-0.9,0.3-1.1
							c-0.2-0.3-0.8-0.2-1.2,0.2c-1.6,1.5-3.1,3.1-4.7,4.7c-1.5,1.6-3,3.3-4.4,5c-0.3,0.4-0.4,0.9-0.3,1.1
							C910,500.9,910.6,500.8,911.1,500.4z"/>
					</g>
					<polygon class="st33" points="833.4,584.2 840.1,560.5 911.1,560.5 915,584.2 					"/>
					<g>
						<circle class="st7" cx="814.9" cy="607.6" r="15"/>
						<circle class="st30" cx="814.9" cy="607.6" r="9"/>
						<path class="st31" d="M809,606l5.1-13.5c0.3-0.7,1-1.2,1.7-1.2h17.9c1.6,0,2.5,1.9,1.4,3.1L819,611.7c-1.3,1.4-3.4,2-5.3,1.4
							l-1.6-0.5C809.4,611.7,808,608.7,809,606z"/>
						<circle class="st7" cx="814.9" cy="607.6" r="3.4"/>
					</g>
					<g>
						<circle class="st7" cx="929.4" cy="607.6" r="15"/>
						<circle class="st30" cx="929.4" cy="607.6" r="9"/>
						<path class="st31" d="M935.3,606l-5.1-13.5c-0.3-0.7-1-1.2-1.7-1.2h-17.9c-1.6,0-2.5,1.9-1.4,3.1l16.1,17.4
							c1.3,1.4,3.4,2,5.3,1.4l1.6-0.5C934.9,611.7,936.3,608.7,935.3,606z"/>
						<circle class="st7" cx="929.4" cy="607.6" r="3.4"/>
					</g>
				</g>
				<g>
					<circle class="st4" cx="968.7" cy="449.4" r="33.9"/>
					<g>
						<path class="st7" d="M975,431.3v29.9h5.7c1.1,0,1.6,0.8,1.6,2.7v0.9c0,1.9-0.5,2.7-1.6,2.7h-20.6c-1.1,0-1.6-0.8-1.6-2.7v-0.9
							c0-1.9,0.5-2.7,1.6-2.7h7.1v-23.8l-7.2,1.1c-1.4,0-1.7-3-1.7-4.5c0-0.8,0.5-1.3,1.4-1.5l13.2-2.4
							C973.7,430,975,430.7,975,431.3z"/>
					</g>
				</g>
			</g>
			<g>
				<polygon class="st5" points="832.9,423.9 832.9,450.6 896,452.2 896,421.1 				"/>
				<polygon class="st34" points="896,421.1 896,452.2 926,453.2 926,426.6 				"/>
				<polygon class="st4" points="831.1,418.8 897.5,416.1 897.5,424.8 831.1,427.5 				"/>
				<polygon class="st5" points="897.5,424.8 928.2,430 928.2,421.8 897.5,416.1 				"/>
			</g>
		</g>
		<g>
			<ellipse class="st22" cx="687.2" cy="607.3" rx="91.2" ry="5.2"/>
		</g>
		<g>
			<g>
				<g>
					<path class="st29" d="M731.2,547.2c1.5,14.7,13.8,36.1,18.6,48.1c1.4,3.5,8.1,1.6,7.3-2.2c-2.6-12.7-4.3-38.3-5.5-51.4
						C750.3,526.2,729.8,533.2,731.2,547.2z"/>
					<g>
						<defs>
							<path id="SVGID_1_" d="M750,595.2c0,0-1.4,4,1,9.5c-0.4,0.2-0.1,2,0.7,2.4c0.9,0.5,7.7,0.3,9.1-0.7c0.3-0.5,0-1.2,0-1.2
								s1.7,0.6,6.5-0.3c4.8-0.9,7.4-2.3,9.3-3.5c0.6-0.4,0.2-1.6-0.5-1.4c0,0-0.4-3.3-3.2-3.2c-5.7,0.4-9.8-2-12.7-3.7
								c-1.4-0.9-2.9-1.6-3.8-1.7C753.9,591.2,750.9,592.6,750,595.2z"/>
						</defs>
						<use xlink:href="#SVGID_1_"  style="overflow:visible;fill:#ED0C37;"/>
						<clipPath id="SVGID_2_">
							<use xlink:href="#SVGID_1_"  style="overflow:visible;"/>
						</clipPath>
						<path class="st35" d="M751,604.6c4.1,0.5,9.7-0.2,9.7-0.2s11-0.2,15.3-4.6c4.3-4.4,8,0.3,8,0.3l-17.9,14.3l-11.7-0.9l-5.2-4.4
							C749.2,609.1,748.7,604.4,751,604.6z"/>
						<path class="st36" d="M749.1,595.5c0,0,1.6,2.7,4.8,2.1s3.6-2.7,2.8-6.1C756,588,745.7,590.3,749.1,595.5z"/>
					</g>
				</g>
				<g>
					<path class="st37" d="M683.3,442.3c0,0,21.1,37.9,28,53.4c7,15.5,15.8,53.7,15.8,53.7s17.3,3.6,26.4-4.5c0,0-2.9-40.4-7.9-58.5
						c-4.9-18.1-23.7-62.6-23.7-62.6C714.4,407.8,675.8,426.3,683.3,442.3z"/>
					<path class="st30" d="M700.5,471.9c0.2-0.2,1.7-6.9,6-14.4c3.7-6.5,12.7-11.6,13.7-10.8c1.7,1.4-11.7,11.3-14.3,18.5
						c0,0,14.9-10.8,15.9-9.4C722.8,457.1,706.4,466.1,700.5,471.9z"/>
				</g>
			</g>
			<g>
				<path class="st15" d="M698.3,348.8c3.5,16,8.9,37.4,20.8,47.8c11.9,10.4,37.7,16.2,38.9,16.2c2.9,0.7,6-14.5,3.7-16.3
					c-2.3-1.8-22.6-10-26.2-13.4c-6.4-6.2-3.7-44.1-11-52.3C717.2,322.6,694.3,330.2,698.3,348.8z"/>
				<path class="st38" d="M763.2,399.3c0,0,9.1,7.5,9.6,9.6c0.5,2,0.3,5.4-0.4,6.3c-0.7,0.9-6.3,3.6-8.4,2.2c-2.1-1.4-5-4.8-5-4.8
					l1-3.7c0,0-0.7,2.5-6.2-0.9C748.3,404.5,758,394.1,763.2,399.3z"/>
			</g>
			<g>
				<g>
					<path class="st29" d="M637.1,536.3c-10.9,9.9-20.8,32.5-27.6,43.5c-2,3.2,3.5,7.4,6.1,4.6c8.7-9.6,28.3-26.2,38.1-35
						C665.2,539.1,647.5,526.9,637.1,536.3z"/>
					<g>
						<defs>
							<path id="SVGID_3_" d="M610.7,578.7c0,0-4.2,1-7.4,6c-0.4-0.3-1.7,1-1.6,1.9c0.1,1,3.9,6.6,5.6,7.2c0.6,0,1-0.7,1-0.7
								s0.4,1.8,3.8,5.3c3.4,3.5,6,4.9,8,5.9c0.6,0.3,1.5-0.7,0.9-1.2c0,0,2.6-2.2,0.9-4.4c-3.4-4.6-3.7-9.3-3.8-12.7
								c-0.1-1.7-0.2-3.3-0.7-4.1C616.1,579.8,613.4,578,610.7,578.7z"/>
						</defs>
						<use xlink:href="#SVGID_3_"  style="overflow:visible;fill:#ED0C37;"/>
						<clipPath id="SVGID_4_">
							<use xlink:href="#SVGID_3_"  style="overflow:visible;"/>
						</clipPath>
						<path class="st39" d="M603.3,584.7c1.8,3.7,5.4,8.1,5.4,8.1s6.1,9.1,12.2,10.3c6,1.2,4.1,6.9,4.1,6.9l-21.7-7.2l-5.6-10.3
							l0.8-6.8C598.5,585.6,602.3,582.6,603.3,584.7z"/>
						<path class="st40" d="M609.9,578.1c0,0-1.4,2.8,0.9,5.1c2.3,2.3,4.2,1.5,6.7-1C620,579.8,612.5,572.4,609.9,578.1z"/>
					</g>
				</g>
				<g>
					<path class="st7" d="M661,428c0,0,2.9,55.6-3.3,70.1c-6.2,14.6-22.4,38.2-22.4,38.2s4.4,13.8,20.9,15.8
						c0,0,24.8-17.5,34.5-43.9c9.7-26.4,17.9-55.5,13.9-77.1C702.3,419.1,664.1,410.3,661,428z"/>
					<path class="st41" d="M668.2,427.5c0,0,0.4,46.3-1.8,64.2c-2.1,17.4-28.8,49.4-28.8,49.4"/>
				</g>
			</g>
			<g>
				<g>
					<path class="st3" d="M723.2,332.1c4.3,8.5-3.4,40.8-3.4,55c0,11.5,1.9,30.7,3.6,37.9c0.5,1.9-0.4,3.9-2.1,4.9
						c-6.6,3.9-15.4,5.9-20.8,6.5c-20.9,2-31-1.7-35.8-3.5c-2.6-1-4.1-3.6-3.7-6.3c1.1-7.1,4-24.3,1.5-40.2
						c-3.3-20.8-8.8-49.1,1-57.8c9.8-8.7,28-14.2,28-14.2S717.9,321.6,723.2,332.1z"/>
					<g>
						<path class="st30" d="M695.9,305.5c0,0-4.7-0.8-11.1-8.8c-4.2-5.2-10.1-29,8.5-32.5c18.6-3.6,24.1,9,24.9,17.2
							c0.8,8.2-8.4,15-12.6,18C701.5,302.4,695.9,305.5,695.9,305.5z"/>
						<path class="st29" d="M691.4,296c0,0-0.6,7.2-2.7,12.8c-2.1,5.6-4.4,7.3-7.1,9.7c-2.7,2.4,10.7,16.6,22.6,20.2
							c0,0,8.6-10.5,4.7-16.4c-4-5.9-7.1-6.4-5.7-14.2c1.2-6.8,2-10.6,2-10.6L691.4,296z"/>
						<g>
							<g>
								<g>
									<path class="st42" d="M691.4,296c0,0-0.6,5.3,1.5,7.6c2.1,2.3,6,7.8,14.7,7.1c11.7-0.9,7.1-19.4,7.1-19.4s1.2-7.1,0-13
										c-1.2-5.9-12.8-8.9-22.2-6.1c0,0-2.7,2.6-1.7,14.1c0,0-1.7-2.1-4.5-0.6c-2.1,1.1-2.3,3.8-1.6,6.3
										C685.7,295.1,688.9,297.7,691.4,296z"/>
								</g>
								<path class="st43" d="M690.4,294.9l-1-2.7l1.8-0.7c0,0-1.1-5.1-4-3.2C684.8,289.7,687.5,295.9,690.4,294.9z"/>
							</g>
							<path class="st30" d="M691.6,290.8c0,0-1.1,7.2-1,10.4c0.2,3.2,3.3,13.2,17.9,12.3c14.5-0.9,9.3-16.6,6.9-17.7
								c0.1,1-0.4,2.7-1.4,3.5c-0.6-1.5-2.3-2.5-4.7-2c-2.1-1.2-4.5-0.4-7,1l-1.8,1.3c-4.5-1.1-6.9-4.1-7.4-8.6L691.6,290.8z"/>
							<g>
								<path class="st3" d="M704.2,299.8c0,0,7.7,0,7.9,0.5c0.2,0.5-0.9,1.6-3.9,1.6C705.1,301.9,704.2,299.8,704.2,299.8z"/>
								<path class="st43" d="M704.2,299.7c0,0,1.1,0,2.7,0.1c0.8,0,1.7,0.1,2.7,0.1c0.5,0,1,0.1,1.5,0.1c0.3,0,0.5,0.1,0.8,0.2
									c0.2,0.1,0.2,0.3,0.1,0.4c0,0.1-0.1,0.3-0.2,0.4c-0.4,0.4-0.9,0.6-1.4,0.7c-0.5,0.1-1,0.2-1.5,0.2c-0.5,0-1,0-1.5,0
									c-0.5,0-0.9-0.2-1.3-0.3c-0.8-0.3-1.3-0.8-1.6-1.1l-0.5-0.8L704.2,299.7z M704.4,300c0.1,0.1,0.1,0.2,0.3,0.4
									c0.3,0.3,0.8,0.8,1.5,1.1c0.4,0.1,0.8,0.3,1.2,0.3c0.5,0.1,0.9,0.1,1.4,0c0.5,0,1-0.1,1.5-0.2c0.5-0.1,1-0.3,1.4-0.7
									c0.2-0.2,0.3-0.5,0.1-0.6c-0.2-0.1-0.5-0.1-0.8-0.2c-0.5-0.1-1-0.1-1.5-0.1c-1-0.1-1.9-0.1-2.7-0.1
									C705.7,300,704.8,300,704.4,300z"/>
							</g>
							<g>
								<path class="st30" d="M705.2,290.4c-0.1,0.6-0.9,0.7-1.9,0.6c-1-0.1-1.9-0.3-1.8-0.9c0.1-0.6,0.9-1.1,2-1
									C704.5,289.1,705.3,289.7,705.2,290.4z"/>
								<path class="st30" d="M698.3,287.3c0,0.1,3-0.9,3.9-0.9c0.9,0,4.5,0.6,4.8,0.2c0.3-0.3,0.5-1.5,0.5-1.5s-4.9-0.5-5.9-0.2
									C700.7,285.1,698.6,286.5,698.3,287.3z"/>
							</g>
							<g>
								<path class="st30" d="M714.7,291.2c-0.1,0.6-0.9,0.7-1.9,0.6c-1-0.1-1.9-0.3-1.8-0.9c0.1-0.6,0.9-1.1,2-1
									C714,289.9,714.8,290.5,714.7,291.2z"/>
								<path class="st30" d="M716,288.8c0,0.1-1.3-1.5-1.9-1.7c-0.6-0.1-3.7,0.1-3.9-0.2c-0.2-0.4-0.1-1.6-0.1-1.6s4.1,0.3,4.8,0.7
									C715.5,286.3,716,287.9,716,288.8z"/>
							</g>
							<g>
								<path class="st44" d="M709.4,296.7c0,0-2.4-0.1-2.3-0.7c0.1-0.7,5.1-1.4,5.3-0.9C712.7,295.5,710.4,296.4,709.4,296.7z"/>
								<path class="st43" d="M709.8,286.7c0,0-0.7,3-0.3,4.1c0.4,1.1,2.6,3.5,2.6,4c0,0.5-2.5,1.8-2.7,1.8
									c-0.2,0.1,3.6-0.5,3.5-1.7c-0.1-1.2-2.9-4.1-3-4.7C709.7,289.7,709.8,286.7,709.8,286.7z"/>
							</g>
							<path class="st30" d="M692.7,291.7c0.7-0.5,2-4.8,0.7-9c-1.2-3.7,1.8-6.5,3.9-6.7c2.4-0.3,10.1,1.9,13.1,1.6
								c6.7-0.8,11.9-2.8,11.9-4c0-1.2-4.9,0-4.9,0s7.5-1.9,6.8-8.1c0,0-5.6,0.4-10.6-1.3s-17-3.7-23.4,1
								c-4.2,3.1-7.1,13.2-1.6,18.3C691,285.8,691.3,292.7,692.7,291.7z"/>
						</g>
					</g>
					<path class="st45" d="M710.1,332.2c0,0-3.2,63.3-2.5,69.2s-0.5,28.8,14,33.2c0,0-6.5-33-5.5-52.8
						C716.9,362,710.1,332.2,710.1,332.2z"/>
				</g>
				<path class="st17" d="M705.5,317.9c0,0,6.2,19.8,5.9,45.6c-0.3,25.8-1.4,78.8,17.7,77.6c0,0-8.1-32.6-7.6-44.4
					s6.9-55.3,4.5-62.7C722.6,323.2,705.5,317.9,705.5,317.9z"/>
				<g>
					<path class="st17" d="M683.5,317c0,0,12.9,20.2,17,54.4c2,16.3-0.2,42.1-2.7,58.6c-2.8,19-40,19-42.4,14
						c-2.4-5,8.3-36.5,4.9-54.4c-3.3-17.9-5.3-47.2-1.3-56.8C663,323.1,683.5,317,683.5,317z"/>
					<path class="st46" d="M664.9,351.2c0,0,6.3,30.5,5.5,46.6c-0.8,16.1-6,48.8-6,48.8"/>
					<path class="st15" d="M660.4,335.2c-0.8,1.9-1.3,4.7-1.7,8c3.5,26.6,18.4,56.4,41.4,67.1c0.8-8.6,1.2-17.8,1.1-26
						c-15.4-15.3-27.2-35.3-36.2-54.9C663,331.1,661.3,333,660.4,335.2z"/>
				</g>
			</g>
			<g>
				<path class="st29" d="M750.4,404.6c0,0,11.5,2.7,12.9,4.3c1.4,1.6,3.7,7,3.5,8.1c-0.3,1.1-6.3,3.5-8.9,3.1
					c-2.5-0.4-5.3-1.8-5.3-1.8c0.4-1.4,0.3-2.6-1.1-3c-1.5-0.5-3.1,0.3-5.7,1.5C739.9,419.5,743.4,402.3,750.4,404.6z"/>
				<path class="st33" d="M658.6,349.2c3.1,17.1,24.9,42.5,34.3,50.6c8.2,7,48.6,19,50.4,19c4.1,0.9,9.4-14,6.2-16
					c-3.2-1.9-39.3-18.5-43.2-22.9c-3.9-4.3-18.2-42.9-28.4-51.7C667.7,319.5,655.1,329.9,658.6,349.2z"/>
			</g>
		</g>
	</g>
	<g>
		<g>
			<path class="st47" d="M1316.5,321.7c16.6-23.9,33.7-18.7,40-8.6c6.3,10.1,1.7,25-11.3,37.4c-9.4,9.4-28.2,16-43.3,19.5
				c-10.6-11.4-22.5-27.2-25.1-40.3c-4-17.5,0.5-32.5,11.3-37.4C1298.8,287.5,1315.9,292.6,1316.5,321.7z"/>
		</g>
		<g class="st48">
			<path class="st49" d="M1356.4,313.1c-5.4-8.6-18.6-13.6-32.7,0c12-9.5,29.2-9.6,30.7,7.7c1.6,18.2-13,30.6-29.7,27.4
				c-22-4.2-16.6-22.6-27-31.6c-8.2-6.9-17.9,3.5-18.3,12c-0.2,3.9,0.2,7.7,0.9,11.4c5,10.5,13.7,21.6,21.6,30.1
				c15.1-3.6,33.9-10.1,43.3-19.5C1358.2,338.1,1362.7,323.1,1356.4,313.1z"/>
		</g>
	</g>
	<g>
		<ellipse class="st22" cx="1113.7" cy="605.5" rx="91.2" ry="5.2"/>
		<g>
			<g>
				<g>
					<g>
						<g>
							<g>
								<defs>
									<path id="SVGID_5_" d="M1130.5,585c0,0,3.8,3.3,4.4,4.3c0.6,0.9,3.1,7.8,3.1,7.8c-0.5,1-2.2,2.4-3.8,2.6l-3.1-3.9
										c0,0-1.6,6.9-3.2,9.1c-1.9,2.7-12.9,5.8-14.5,5c0,0-2-4,1.4-6.2c6.4-4.1,6.5-12.6,6.5-12.6
										C1120.4,586,1125.9,582.2,1130.5,585z"/>
								</defs>
								<use xlink:href="#SVGID_5_"  style="overflow:visible;fill:#FD6141;"/>
								<clipPath id="SVGID_6_">
									<use xlink:href="#SVGID_5_"  style="overflow:visible;"/>
								</clipPath>
								<path class="st50" d="M1112.1,609.3c0.2-0.1,14-2,15.7-6.1c1.3-3.2,2.1-8.6,2.9-9.2c0.7-0.6,4.2-4.8,4.2-4.8l5.5,9.7
									l-20.9,17.6L1112.1,609.3z"/>
							</g>
							<path class="st51" d="M1118.8,600.1l1.9,0.4c0,0,1.3-1.8,1.2-3.5l-1.8-0.6c-0.3-0.1-0.7,0.1-0.8,0.4l-0.9,2.5
								C1118.2,599.6,1118.4,600,1118.8,600.1z"/>
						</g>
						<path class="st29" d="M1106.1,393.8c0-0.7-17.6,77.4-17,98.5c0.4,13.1,24.9,73.3,32.2,98.7c1.4,4.9,9-0.8,8.4-5.9
							c-2.9-24.4-2.7-37.2-13.4-90.1c-1.7-8.2,27.9-82.1,25.6-99.4C1139.5,378.3,1115.4,368.8,1106.1,393.8z"/>
						<path class="st52" d="M1141.9,395.6c-2.3-17.3-26.5-26.7-35.7-1.7c0-0.6-15.9,70-16.9,95c7.9-6,18.4-2.8,27.4,1.9
							C1120.2,472.7,1144,411.2,1141.9,395.6z"/>
					</g>
					<g>
						<g>
							<g>
								<defs>
									<path id="SVGID_7_" d="M1155.7,590.1c0,0,2.4,4.4,2.6,5.5c0.3,1.1,0.1,8.4,0.1,8.4c-0.8,0.7-2.9,1.5-4.5,1.1l-1.5-4.8
										c0,0-2.3,4.7-4.5,6.2c-2.8,1.9-12.6,4.1-14.2,3.3c0,0-2.3-4.4,1.4-6.2c9.1-4.7,9.9-11.1,9.9-11.1
										C1145.9,587.4,1152.4,585.8,1155.7,590.1z"/>
								</defs>
								<use xlink:href="#SVGID_7_"  style="overflow:visible;fill:#FD6141;"/>
								<clipPath id="SVGID_8_">
									<use xlink:href="#SVGID_7_"  style="overflow:visible;"/>
								</clipPath>
								<path class="st53" d="M1132.6,609.4c0.2,0,11.4-1.1,14.1-3.2c2.7-2.1,5-7.3,6-7.6c0.9-0.3,5.6-2.9,5.6-2.9l1.8,11l-25.7,9
									L1132.6,609.4z"/>
							</g>
							<path class="st51" d="M1139.8,600.6l1.6,1c0,0,1.9-1.2,2.4-2.8l-1.5-1.3c-0.3-0.2-0.7-0.2-0.9,0.1l-1.7,2
								C1139.4,600,1139.5,600.4,1139.8,600.6z"/>
						</g>
						<path class="st29" d="M1123.5,398.9c-0.1,6.8,0.9,79.3,7.2,99.2c3.9,12.4,12.1,71.7,14.9,92c1,7.4,9,7.4,9.6,0.3
							c2.2-26.3,10.7-62.8,1-94.9c-2.4-8,8.8-90.8,1.8-106.6C1151.1,373.1,1124,373.7,1123.5,398.9z"/>
						<path class="st52" d="M1155.9,490.1c0.2-20.5,8.3-87.2,2.2-101.2c-6.9-15.8-34.1-15.2-34.6,10c-0.1,6.3,0.8,68.2,5.8,93.5
							C1137.1,487.9,1147,487.5,1155.9,490.1z"/>
					</g>
					<g>
						<path class="st17" d="M1106.9,385.3l-0.8,7.1c0,0-12.8,32.3-18.3,84.8c13.6-3.8,39.3,8.8,77.4,3.4c0,0,15.1-67.2-11.1-97.1
							C1127.9,353.7,1108.3,369.5,1106.9,385.3z"/>
						<path class="st15" d="M1107,392.2c0,0-1,10.1,16.4,11.8c17.4,1.8,34.7-10.8,34.3-14.5C1157.2,385.8,1107,392.2,1107,392.2z"/>
						<path class="st54" d="M1150,387.2c0,0,19.9,33.2,7.7,92.4"/>
					</g>
				</g>
				<g>
					<g>
						<path class="st29" d="M1036,366.4c-0.1,0-7.4-0.4-8.6-0.1c-1.2,0.3-4.1,1.7-5,2.2c-2,1-0.1,2.4,1.5,2.3
							c2.1-0.2,2.9-0.6,3.8-0.4c0.5,0.1,0.9,0.2,1.3,0.3c-0.8,0.7-4.1,3-6.6,4c-1.4,0.5-2.7,0.9-4.8,1.6c-0.9,0.3-0.8,1.5,0.3,1.7
							c0.7,0.1,3.3,0.1,5.5-0.7c0.9-0.3,1.8-0.7,2.6-1.1c0,0.1-1.9,1.2-2.8,1.6c-1.3,0.6-2.7,0.9-4.7,1.6c-0.9,0.3-0.7,1.4,0.4,1.5
							c0.3,0,0.8,0.1,1.5,0.1c-0.4,0.5-0.1,1.2,0.7,1.3c0.4,0.1,1.2,0,2.2-0.2c0.1,0.2,0.4,0.5,0.8,0.5c7.4,0,11.7-4,15.8-4.9
							C1046.4,371.2,1040.8,367.3,1036,366.4z"/>
						<path class="st37" d="M1121.6,314c-5-2.8-13.5-3.8-20.2,5.8c-6.7,9.6-9.7,32.1-16.8,39.7c-4.2,4.5-42.8,5.9-45.6,7.2
							c-1.8,0.9-0.7,9.5-0.1,11.1c1.2,3.3,43,5.1,54.4,0.6C1104.5,374,1132.3,320.1,1121.6,314z"/>
					</g>
					<path class="st30" d="M1105.4,271.3c0.3-3.5,0.3-9.3,4.5-14.3c4.2-5,20.4-10.1,28.9-4.2c10.5,7.2,7,14,20.1,19.3
						c13,5.3,9.1,11.1,5.4,17.1c-3.7,6-2.4,6.9,3.6,13.2c6,6.2,14,21.8,0,30.7c-14,8.9-44.4,3.1-56.6-8.7
						c-12.2-11.7,2.2-19.4-1.2-26.4s-7.3-5.4-7.3-12.9C1102.7,279.3,1104.9,276.7,1105.4,271.3z"/>
					<path class="st7" d="M1131.7,305.7c0,0-27.7,4.6-28.6,13.1c-0.4,3.5,4.4,10.7,3.2,14.3c-1.8,5.3-4.7,8.4,0.6,20.9
						c4.3,10.2-3.1,31.2-2.9,33.7c0.8,9.4,15.7,11.1,21.8,10.9c8.7-0.2,33.6-5.8,33.6-11.3c0-4.7-11.6-14.9-12.7-23.1
						c-1.1-8.1,20-40.7,15.8-47.8C1154.5,302.7,1131.7,305.7,1131.7,305.7z"/>
					<g>
						<path class="st29" d="M1158.2,392.9c-0.1,0-7.1,1.8-8.2,2.5c-1,0.7-3.4,2.9-4.1,3.6c-1.6,1.6,0.7,2.3,2.1,1.7
							c2-0.8,2.6-1.4,3.5-1.6c0.5-0.1,0.9-0.1,1.3-0.1c-0.5,0.9-3,4.1-5.1,5.8c-1.2,1-2.3,1.7-4,3c-0.8,0.6-0.3,1.7,0.8,1.5
							c0.7-0.1,3.2-0.9,5-2.3c0.7-0.6,1.5-1.2,2.1-1.8c0,0.1-1.4,1.7-2.2,2.4c-1.1,1-2.3,1.6-4,2.9c-0.8,0.6-0.2,1.5,0.8,1.3
							c0.3,0,0.8-0.2,1.4-0.4c-0.2,0.6,0.3,1.2,1.1,1.1c0.4-0.1,1.1-0.4,2.1-0.9c0.2,0.2,0.5,0.3,0.9,0.2c4.4-1,11.8-7.3,13.5-9.5
							C1169.6,394.3,1163.1,392.3,1158.2,392.9z"/>
						<path class="st7" d="M1152.2,309.7c-4.5,3.6-8.5,11.2-2,21c6.4,9.8,24.8,19.9,29.3,29.3c2.7,5.6-22.1,29.7-22.2,32.8
							c0,3.1,4.7,10.6,6.5,11.4c3.2,1.6,38-32.3,38-44.5C1201.8,347.5,1161.8,301.9,1152.2,309.7z"/>
					</g>
					<path class="st29" d="M1135.9,284.3c0,0,0.6,7.2,2.7,12.8c2.1,5.6,4.4,7.3,7.1,9.7c2.7,2.4-10.7,16.6-22.6,20.2
						c0,0-8.6-10.5-4.7-16.4c4-5.9,7.1-6.4,5.7-14.2c-1.2-6.8-2-10.6-2-10.6L1135.9,284.3z"/>
					<g>
						<g>
							<path class="st3" d="M1117.5,288c0,3.4-1.4,6.1-3.1,6.1s-3.1-2.7-3.1-6.1c0-2.3,0.6-4.2,1.6-5.3c0.3-0.4-0.1-0.7-0.4-0.3
								c-1,1.1-1.7,3.2-1.7,5.6c0,3.7,1.6,6.6,3.5,6.6s3.5-2.9,3.5-6.6c0-1.9-0.3-3.4-1-4.6c-0.1,0.1-0.3,0.2-0.3,0.3
								C1117.2,284.8,1117.5,286.3,1117.5,288z"/>
						</g>
						<g>
							<path class="st42" d="M1135.9,284.3c0,0-1.9,14.6-15.7,13.6c-6.9-0.5-10.4-14.7-7.7-18.2c0,0-1.2-7.1,0-13
								c1.2-5.9,12.8-8.9,22.2-6.1c0,0,2.7,2.6,1.7,14.1c0,0,1.7-2.1,4.5-0.6c2.1,1.1,2.3,3.8,1.6,6.3
								C1141.6,283.5,1138.4,286.1,1135.9,284.3z"/>
							<path class="st43" d="M1136.9,283.2l1-2.7l-1.8-0.7c0,0,1.1-5.1,4-3.2C1142.5,278.1,1139.8,284.2,1136.9,283.2z"/>
							<g>
								<path class="st3" d="M1141.3,288c0,3.4-1.4,6.1-3.1,6.1c-1.7,0-3.1-2.7-3.1-6.1c0-2.3,0.6-4.2,1.6-5.3
									c0.3-0.4-0.1-0.7-0.4-0.3c-1,1.1-1.7,3.2-1.7,5.6c0,3.7,1.6,6.6,3.5,6.6c2,0,3.5-2.9,3.5-6.6c0-1.9-0.3-3.4-1-4.6
									c-0.1,0.1-0.3,0.2-0.3,0.3C1141,284.8,1141.3,286.3,1141.3,288z"/>
							</g>
						</g>
						<g>
							<g>
								<path class="st17" d="M1116.7,288.8c0,0,0.9-2.3,8.1-1.5C1124,291.1,1117.2,292.9,1116.7,288.8z"/>
								<g>
									<path class="st43" d="M1116.7,288.8c0,0,4.3,0,8.1-1.5"/>
									<path class="st43" d="M1116.7,288.8c0,0,2.1-0.2,4.1-0.5c1-0.2,2-0.4,2.8-0.6c0.8-0.2,1.2-0.4,1.2-0.4s-0.1,0.1-0.3,0.1
										c-0.2,0.1-0.5,0.2-0.9,0.4c-0.7,0.3-1.7,0.5-2.8,0.7c-1,0.2-2.1,0.3-2.9,0.3C1117.2,288.8,1116.7,288.8,1116.7,288.8z"/>
								</g>
							</g>
							<g>
								<path class="st30" d="M1112.6,279.5c0.1,0.6,0.9,0.7,1.9,0.6s1.9-0.3,1.8-0.9s-0.9-1.1-2-1S1112.5,278.8,1112.6,279.5z"/>
								<path class="st30" d="M1110.4,276.8c0,0.1,2.4-2.1,3.1-2c0.7,0,3.1,0.9,3.3,0.6c0.2-0.3,0.5-1.1,0.5-1.1s-3.4-0.6-4.1-0.4
									C1112.4,274.1,1110.7,276,1110.4,276.8z"/>
							</g>
							<g>
								<path class="st30" d="M1122.1,278.7c0.1,0.6,0.9,0.7,1.9,0.6s1.9-0.3,1.8-0.9c-0.1-0.6-0.9-1.1-2-1S1122,278,1122.1,278.7z"
									/>
								<path class="st30" d="M1128.3,274.6c0.1,0.1-3.2-1.3-4-1c-0.8,0.2-3.4,1.5-3.8,1.3c-0.3-0.3-0.7-0.9-0.7-0.9
									s3.8-1.3,4.8-1.3C1125.4,272.6,1127.8,273.8,1128.3,274.6z"/>
							</g>
							<g>
								<path class="st44" d="M1117.9,285c0,0,2.4-0.1,2.3-0.7c-0.1-0.7-5.1-1.4-5.3-0.9C1114.6,283.9,1116.9,284.7,1117.9,285z"/>
								<path class="st43" d="M1117.5,275.1c0,0,0.7,3,0.3,4.1c-0.4,1.1-2.6,3.5-2.6,4c0,0.5,2.5,1.8,2.7,1.8
									c0.2,0.1-3.6-0.5-3.5-1.7c0.1-1.2,2.9-4.1,3-4.7C1117.6,278,1117.5,275.1,1117.5,275.1z"/>
							</g>
						</g>
					</g>
					<path class="st30" d="M1131.7,261.7c-11.4,1.2-16.5,12-24.9,12c-5.2-9,10.7-31.9,29.4-14.1c8.6,8.1,0.8,14.4,0.8,14.4l-1.9,6.6
						c0,0,0.2-4.9-1.6-6.8C1128.3,268.1,1131.7,261.7,1131.7,261.7z"/>
				</g>
			</g>
		</g>
	</g>
	<g>
		<path class="st55" d="M1056.9,201.1l-117.5-28.9l0,0l-14.9-3.7c-5.8-1.4-11.6,2.1-13.1,7.9l-11.7,47.4l0,0l-0.7,2.7l-5.3,21.7
			c-1.4,5.8,2.1,11.6,7.9,13.1l130.3,32.1c5.8,1.4,11.6-2.1,13.1-7.9l1.6-6.3l0,0l4.4-18.1l0,0l6.5-26.3l0,0l5.7-23.2
			C1064.3,206.9,1061.5,202.2,1056.9,201.1z"/>
		<g>
			<path class="st5" d="M1034.6,290.2l-139.9-34.4c-3.1-0.8-5-3.9-4.3-7.1l20.1-81.5c0.8-3.1,3.9-5,7.1-4.3l139.9,34.4
				c3.1,0.8,5,3.9,4.3,7.1l-20.1,81.5C1040.9,289.1,1037.8,291,1034.6,290.2z"/>
			<path class="st4" d="M918.2,190.1c-4.4,11.8-3,28.1,8.9,34c42.3,25.2,87.4,23,128.2,6.4l5.7-23.2c1.1-4.6-1.7-9.3-6.3-10.4
				l-117.5-28.9C928.4,172.8,922.1,181.4,918.2,190.1z"/>
			
				<rect x="893.1" y="237.9" transform="matrix(0.971 0.239 -0.239 0.971 87.2048 -224.8963)" class="st7" width="155.8" height="18.6"/>
			<path class="st7" d="M965.1,195l-49.6-12.2c-1.3-0.3-2-1.6-1.7-2.8l1.1-4.5c0.3-1.3,1.6-2,2.8-1.7l49.6,12.2
				c1.3,0.3,2,1.6,1.7,2.8l-1.1,4.5C967.7,194.6,966.4,195.4,965.1,195z"/>
			<path class="st7" d="M1004.3,214.3l-92-22.7c-0.6-0.2-1-0.8-0.9-1.4l0.6-2.2c0.2-0.6,0.8-1,1.4-0.9l92,22.7
				c0.6,0.2,1,0.8,0.9,1.4l-0.6,2.2C1005.5,214,1004.9,214.4,1004.3,214.3z"/>
			<g>
				<path class="st3" d="M986.2,231.5l-5.7-1.4c-0.9-0.2-1.4-1.1-1.2-2l0.8-3.2c0.2-0.9,1.1-1.4,2-1.2l5.7,1.4
					c0.9,0.2,1.4,1.1,1.2,2l-0.8,3.2C987.9,231.2,987.1,231.7,986.2,231.5z"/>
				<path class="st3" d="M997.4,234.3l-5.7-1.4c-0.9-0.2-1.4-1.1-1.2-2l0.8-3.2c0.2-0.9,1.1-1.4,2-1.2l5.7,1.4
					c0.9,0.2,1.4,1.1,1.2,2l-0.8,3.2C999.2,233.9,998.3,234.5,997.4,234.3z"/>
				<path class="st3" d="M1008.7,237l-5.7-1.4c-0.9-0.2-1.4-1.1-1.2-2l0.8-3.2c0.2-0.9,1.1-1.4,2-1.2l5.7,1.4c0.9,0.2,1.4,1.1,1.2,2
					l-0.8,3.2C1010.5,236.7,1009.6,237.3,1008.7,237z"/>
			</g>
			<g>
				<path class="st17" d="M1034,203.4c-1.3-2.3-3.6-4.1-6.4-4.8c-5.4-1.3-10.9,2-12.3,7.4c-1.3,5.4,2,10.9,7.4,12.3
					c2.8,0.7,5.6,0.1,7.9-1.3c-1.2-2.2-1.7-4.8-1.1-7.4C1030.2,206.9,1031.8,204.7,1034,203.4z"/>
				<path class="st17" d="M1041.8,202.1c-2.8-0.7-5.6-0.1-7.9,1.3c1.2,2.2,1.7,4.8,1.1,7.4c-0.6,2.6-2.3,4.8-4.4,6.1
					c1.3,2.3,3.6,4.1,6.4,4.8c5.4,1.3,10.9-2,12.3-7.4C1050.6,208.9,1047.3,203.4,1041.8,202.1z"/>
			</g>
		</g>
	</g>
</g>
</svg>
